<?xml version="1.0" encoding="UTF-8" standalone="no"?>
<svg
   xmlns:dc="http://purl.org/dc/elements/1.1/"
   xmlns:cc="http://creativecommons.org/ns#"
   xmlns:rdf="http://www.w3.org/1999/02/22-rdf-syntax-ns#"
   xmlns:svg="http://www.w3.org/2000/svg"
   xmlns="http://www.w3.org/2000/svg"
   version="1.1"
   id="svg2"
   viewBox="0 0 963.77971 194.88191"
   height="55mm"
   width="272mm">
  <defs
     id="defs4" />
  <metadata
     id="metadata7">
    <rdf:RDF>
      <cc:Work
         rdf:about="">
        <dc:format>image/svg+xml</dc:format>
        <dc:type
           rdf:resource="http://purl.org/dc/dcmitype/StillImage" />
        <dc:title></dc:title>
      </cc:Work>
    </rdf:RDF>
  </metadata>
  <g
     transform="translate(0,-857.48089)"
     id="layer1">
    <g
       id="text4136"
       style="font-style:normal;font-weight:normal;font-size:40px;line-height:125%;font-family:sans-serif;letter-spacing:0px;word-spacing:0px;fill:#000000;fill-opacity:1;stroke:none;stroke-width:1px;stroke-linecap:butt;stroke-linejoin:miter;stroke-opacity:1">
      <path
         id="path4224"
         style="font-weight:bold;font-size:37.50000763px;fill:#e50000;fill-opacity:1"
         d="m 95.472774,900.34607 q -3.131105,0 -5.676271,-1.06201 -2.526856,-1.06201 -4.449464,-3.20435 -3.808594,-4.24805 -3.808594,-11.57227 0,-3.51562 0.842285,-6.33545 0.860596,-2.81982 2.581788,-4.96216 1.721191,-2.14233 3.973389,-3.18603 2.270508,-1.06201 4.99878,-1.06201 2.160645,0 3.735353,0.62256 1.574707,0.62255 2.67334,1.77612 2.30713,2.41699 2.30713,6.57349 l 0,14.09912 -3.588869,0 0,-1.50146 q -0.402832,0.54931 -0.805664,0.8789 -0.402832,0.32959 -0.823975,0.53101 -0.933838,0.45776 -2.288818,0.45776 -2.98462,0 -4.815675,-2.16064 -1.849366,-2.17896 -1.849366,-5.73121 0,-1.81274 0.457764,-3.22265 0.476074,-1.40992 1.373291,-2.45362 1.831055,-2.14233 4.815675,-2.14233 0.622559,0 1.208496,0.10986 0.604249,0.0916 1.116944,0.32959 0.476074,0.21973 0.897217,0.56763 0.421143,0.3479 0.714111,0.75073 l 0,-0.75073 q 0,-2.49024 -1.35498,-3.84522 -1.391602,-1.35498 -3.845216,-1.35498 -1.977539,0 -3.570557,0.87891 -1.574708,0.8606 -2.709962,2.45361 -1.116943,1.5564 -1.757813,3.77198 -0.640869,2.21557 -0.640869,4.94385 0,2.94799 0.750733,5.20019 0.750732,2.2522 2.01416,3.77198 1.428223,1.70288 3.33252,2.50854 1.904298,0.80566 4.010011,0.80566 0.732422,0 1.483155,-0.10986 0.750732,-0.0916 1.446533,-0.31128 0.65918,-0.20141 1.31836,-0.54931 0.677494,-0.32959 1.318364,-0.75074 l 1.68457,3.22266 q -0.76905,0.53101 -1.61133,0.91553 -0.84229,0.38452 -1.611331,0.60425 -0.805664,0.23803 -1.776123,0.36621 -0.952149,0.12817 -2.069092,0.12817 z m 0.274658,-11.38916 q 1.629639,0 2.563477,-1.17188 0.933838,-1.17187 0.933838,-3.25928 0,-2.05078 -0.933838,-3.24096 -0.933838,-1.17188 -2.563477,-1.17188 -0.915528,0 -1.519776,0.32959 -0.604248,0.31128 -1.025391,0.84229 -0.933838,1.19018 -0.933838,3.24096 0,2.08741 0.933838,3.25928 0.421143,0.53101 1.025391,0.8606 0.604248,0.31128 1.519776,0.31128 z" />
      <path
         id="path4226"
         style="font-weight:bold;font-size:37.50000763px;fill:#00aaab;fill-opacity:1"
         d="m 116.84119,895.03601 q -4.81568,0 -7.47071,-2.85645 -2.67334,-2.87475 -2.67334,-7.91015 0,-5.05371 2.69165,-7.94678 2.69165,-2.85645 7.39746,-2.85645 1.68457,0 3.22266,0.38452 1.51978,0.38453 3.03955,1.19019 l 0,4.90723 q -0.58594,-0.5127 -1.26343,-0.89722 -0.65918,-0.40283 -1.30005,-0.65918 -0.64086,-0.25635 -1.3916,-0.38452 -0.75073,-0.14649 -1.53808,-0.14649 -1.37329,0 -2.36206,0.43946 -0.97046,0.42114 -1.64795,1.2268 -1.40992,1.68458 -1.40992,4.74244 0,3.05786 1.40992,4.72412 1.3916,1.64795 4.02832,1.64795 1.53808,0 2.91137,-0.53101 0.58594,-0.21972 1.24512,-0.60425 0.67749,-0.38452 1.31836,-0.97045 l 0,4.92553 q -0.73242,0.42115 -1.44653,0.6958 -0.6958,0.27466 -1.46485,0.47608 -0.76904,0.20141 -1.55639,0.29297 -0.78736,0.10986 -1.7395,0.10986 z" />
      <path
         id="path4228"
         style="font-weight:bold;font-size:37.50000763px;fill:#00aaab;fill-opacity:1"
         d="m 135.59119,895.03601 q -1.66626,0 -3.02124,-0.45776 -1.33667,-0.45777 -2.32544,-1.3916 -1.95923,-1.84937 -1.95923,-5.16358 0,-1.75781 0.54932,-3.09448 0.56762,-1.33667 1.77612,-2.21558 2.32544,-1.70288 7.19604,-1.70288 l 3.71705,0 0,-0.89722 q 0,-0.67749 -0.25635,-1.17187 -0.23804,-0.49439 -0.67749,-0.80567 -0.47608,-0.3479 -1.2085,-0.49438 -0.71411,-0.1648 -1.66626,-0.1648 -0.8789,0 -1.81274,0.12818 -0.91553,0.10986 -1.81275,0.3479 -0.8789,0.23803 -1.83105,0.64087 -0.95215,0.38452 -1.94092,0.91552 l 0,-4.57763 q 0.76904,-0.31128 1.72119,-0.60425 0.97046,-0.31128 1.88599,-0.47608 0.75073,-0.14648 1.83105,-0.25634 1.08033,-0.10987 2.28882,-0.10987 1.28174,0 2.30713,0.14649 1.0437,0.14648 1.86768,0.42114 0.84228,0.27466 1.46484,0.65918 0.64087,0.38452 1.11695,0.84229 0.49438,0.49438 0.8789,1.13525 0.38452,0.64087 0.64087,1.51977 0.27466,0.8606 0.40283,1.97754 0.12818,1.09864 0.12818,2.52686 0,0.3479 -0.0183,0.91553 0,0.56762 -0.0183,1.24512 0,0.67749 -0.0183,1.40991 0,0.71411 -0.0183,1.35498 0,0.64087 -0.0183,1.13525 0,0.49439 0,0.71411 0,0.38453 0,0.76905 0.0183,0.38452 0.0366,0.64087 0.0366,0.36621 0.0549,0.73242 0.0366,0.3479 0.0732,0.58594 0.0549,0.36621 0.12817,0.71411 0.0732,0.32959 0.12818,0.51269 0.0916,0.27466 0.21972,0.56763 0.14649,0.29297 0.29297,0.49438 l -5.31006,0 q -0.16479,-0.27465 -0.31128,-0.56762 -0.12817,-0.29297 -0.20141,-0.49439 -0.0549,-0.1831 -0.12818,-0.51269 -0.0732,-0.3479 -0.10986,-0.71411 -1.00708,1.33667 -2.6001,2.0874 -0.76904,0.36621 -1.59302,0.54932 -0.80566,0.1831 -1.84936,0.1831 z m 1.50146,-3.71704 q 1.02539,0 1.84937,-0.38452 0.82397,-0.40283 1.40991,-1.22681 1.17188,-1.57471 1.17188,-4.46777 l 0,-0.36621 -2.14234,0 q -3.02124,0 -4.19311,0.76904 -1.19019,0.76904 -1.19019,2.6001 0,0.75073 0.20142,1.30005 0.20141,0.531 0.62256,0.95214 0.82397,0.82398 2.2705,0.82398 z" />
      <path
         id="path4230"
         style="font-weight:bold;font-size:37.50000763px;fill:#00aaab;fill-opacity:1"
         d="m 158.11317,895.03601 q -1.70288,0 -3.07617,-0.6958 -1.35498,-0.6958 -2.34375,-2.10571 -1.94092,-2.80152 -1.94092,-7.9834 0,-5.18189 1.97754,-7.96509 0.93383,-1.31836 2.30713,-2.05078 1.37329,-0.73243 3.18603,-0.73243 0.87891,0 1.62964,0.20142 0.75073,0.1831 1.44653,0.64087 1.30005,0.86059 2.28882,2.56348 l 0,-10.89478 5.34668,0 0,28.49121 -4.81567,0 -0.53101,-3.03955 q -0.42114,0.89722 -0.98877,1.57471 -0.56762,0.65918 -1.2268,1.09863 -1.35498,0.89722 -3.25928,0.89722 z m 1.72119,-4.39453 q 1.72119,0 2.74658,-1.68457 1.00708,-1.66626 1.00708,-4.65088 0,-2.98462 -1.00708,-4.65088 -1.02539,-1.68457 -2.74658,-1.68457 -1.7395,0 -2.72827,1.68457 -0.98877,1.68457 -0.98877,4.65088 0,2.98462 0.98877,4.65088 0.98877,1.68457 2.72827,1.68457 z" />
      <path
         id="path4232"
         style="font-weight:bold;font-size:37.50000763px;fill:#00aaab;fill-opacity:1"
         d="m 183.83949,895.03601 q -2.67334,0 -4.63257,-0.67749 -1.94092,-0.6958 -3.31421,-2.0874 -2.72827,-2.78321 -2.72827,-7.91016 0,-2.56348 0.64087,-4.52271 0.65918,-1.95923 1.97754,-3.42407 2.60009,-2.91138 7.17773,-2.91138 2.16065,0 3.95508,0.65918 1.79443,0.64087 3.09448,2.03247 1.30005,1.39161 1.9043,3.33252 0.60425,1.92261 0.60425,4.28467 l 0,2.17896 -13.89771,0 q 0.0366,2.4353 1.42822,3.60718 1.40992,1.19018 4.19312,1.19018 1.84937,0 3.66211,-0.531 0.84229,-0.25635 1.77612,-0.65918 0.93384,-0.40283 1.97754,-1.02539 l 0,4.92553 q -1.86767,0.76905 -3.80859,1.15357 -0.98877,0.20142 -2.01416,0.29297 -1.00708,0.0915 -1.99585,0.0915 z m 3.27759,-13.07373 q -0.0366,-2.14234 -1.08033,-3.22266 -0.49438,-0.51269 -1.28173,-0.78735 -0.76905,-0.29297 -1.79444,-0.29297 -1.88599,0 -2.98462,1.11694 -1.09863,1.13526 -1.30005,3.20435 l 8.44117,-0.0183 z" />
      <path
         id="path4234"
         style="font-weight:bold;font-size:37.50000763px;fill:#00aaab;fill-opacity:1"
         d="m 197.37098,873.99719 4.79736,0 0.53101,3.07617 q 0.58594,-1.70288 1.94092,-2.63672 1.37329,-0.93384 3.33252,-0.93384 2.89307,0 4.37622,1.92261 1.48315,1.95923 1.48315,5.76782 l 0,13.31177 -5.32837,0 0,-12.48779 q 0,-2.2522 -0.62255,-3.20435 -0.31128,-0.47607 -0.84229,-0.71411 -0.51269,-0.23804 -1.17187,-0.23804 -0.78736,0 -1.35499,0.32959 -0.54931,0.32959 -0.97045,0.97046 -0.40284,0.62256 -0.62256,1.48316 -0.21973,0.86059 -0.21973,2.12402 l 0,11.73706 -5.32837,0 0,-20.50781 z" />
      <path
         id="path4236"
         style="font-weight:bold;font-size:37.50000763px;fill:#00aaab;fill-opacity:1"
         d="m 225.82559,895.03601 q -1.66626,0 -3.02124,-0.45776 -1.33667,-0.45777 -2.32544,-1.3916 -1.95923,-1.84937 -1.95923,-5.16358 0,-1.75781 0.54931,-3.09448 0.56763,-1.33667 1.77613,-2.21558 2.32544,-1.70288 7.19604,-1.70288 l 3.71704,0 0,-0.89722 q 0,-0.67749 -0.25634,-1.17187 -0.23804,-0.49439 -0.67749,-0.80567 -0.47608,-0.3479 -1.2085,-0.49438 -0.71411,-0.1648 -1.66626,-0.1648 -0.87891,0 -1.81274,0.12818 -0.91553,0.10986 -1.81275,0.3479 -0.87891,0.23803 -1.83105,0.64087 -0.95215,0.38452 -1.94092,0.91552 l 0,-4.57763 q 0.76904,-0.31128 1.72119,-0.60425 0.97046,-0.31128 1.88599,-0.47608 0.75073,-0.14648 1.83105,-0.25634 1.08032,-0.10987 2.28882,-0.10987 1.28174,0 2.30713,0.14649 1.0437,0.14648 1.86768,0.42114 0.84228,0.27466 1.46484,0.65918 0.64087,0.38452 1.11694,0.84229 0.49439,0.49438 0.87891,1.13525 0.38452,0.64087 0.64087,1.51977 0.27466,0.8606 0.40283,1.97754 0.12817,1.09864 0.12817,2.52686 0,0.3479 -0.0183,0.91553 0,0.56762 -0.0183,1.24512 0,0.67749 -0.0183,1.40991 0,0.71411 -0.0183,1.35498 0,0.64087 -0.0183,1.13525 0,0.49439 0,0.71411 0,0.38453 0,0.76905 0.0183,0.38452 0.0366,0.64087 0.0366,0.36621 0.0549,0.73242 0.0366,0.3479 0.0733,0.58594 0.0549,0.36621 0.12817,0.71411 0.0732,0.32959 0.12817,0.51269 0.0916,0.27466 0.21973,0.56763 0.14649,0.29297 0.29297,0.49438 l -5.31006,0 q -0.16479,-0.27465 -0.31128,-0.56762 -0.12817,-0.29297 -0.20141,-0.49439 -0.0549,-0.1831 -0.12818,-0.51269 -0.0732,-0.3479 -0.10986,-0.71411 -1.00708,1.33667 -2.6001,2.0874 -0.76904,0.36621 -1.59302,0.54932 -0.80566,0.1831 -1.84936,0.1831 z m 1.50146,-3.71704 q 1.02539,0 1.84937,-0.38452 0.82397,-0.40283 1.40991,-1.22681 1.17187,-1.57471 1.17187,-4.46777 l 0,-0.36621 -2.14233,0 q -3.02124,0 -4.19312,0.76904 -1.19018,0.76904 -1.19018,2.6001 0,0.75073 0.20141,1.30005 0.20142,0.531 0.62256,0.95214 0.82398,0.82398 2.27051,0.82398 z" />
      <path
         id="path4238"
         style="font-weight:bold;font-size:37.50000763px;fill:#00aaab;fill-opacity:1"
         d="m 250.61807,895.03601 q -0.93384,0 -1.94092,-0.0915 -0.98877,-0.0732 -1.92261,-0.21973 -0.93384,-0.14648 -1.94092,-0.40283 -0.98877,-0.25635 -1.99585,-0.56763 l 0,-4.6875 q 1.79444,1.02539 3.62549,1.53809 0.93384,0.25635 1.79444,0.40283 0.8789,0.12817 1.81274,0.12817 1.81274,0 2.80151,-0.54931 0.47608,-0.27466 0.71412,-0.65918 0.25634,-0.40283 0.25634,-1.0437 0,-0.42115 -0.14648,-0.76905 -0.12817,-0.3479 -0.56763,-0.67749 -0.43945,-0.32959 -1.2268,-0.62256 -0.76905,-0.29297 -2.01417,-0.56762 l -1.48315,-0.32959 q -3.07617,-0.6958 -4.48608,-2.17896 -1.40992,-1.50146 -1.40992,-3.93677 0,-3.00293 2.14234,-4.65088 2.14233,-1.64795 6.04248,-1.64795 0.87891,0 1.79443,0.0733 0.91553,0.0732 1.66626,0.20141 0.75074,0.12818 1.66626,0.36621 0.91553,0.21973 1.68457,0.49439 l 0,4.6875 q -0.75073,-0.47608 -1.55639,-0.84229 -0.78736,-0.38452 -1.51978,-0.60425 -0.73242,-0.21972 -1.57471,-0.3479 -0.82397,-0.12817 -1.72119,-0.12817 -0.82397,0 -1.48315,0.12817 -0.65918,0.10987 -1.13526,0.38453 -0.47607,0.25634 -0.71411,0.65918 -0.21972,0.38452 -0.21972,0.80566 0,0.82397 0.93383,1.40991 0.93384,0.58594 2.98462,1.06201 l 0.20142,0.0549 1.53809,0.36621 q 1.44653,0.3479 2.52685,0.89721 1.08032,0.54932 1.77612,1.33667 0.69581,0.78736 1.0254,1.86768 0.32959,1.06201 0.32959,2.32544 0,3.16773 -2.0691,4.74243 -1.0437,0.80567 -2.61841,1.19019 -1.55639,0.40283 -3.57055,0.40283 z" />
      <path
         id="path4240"
         style="font-style:normal;font-variant:normal;font-weight:normal;font-stretch:normal;font-size:37.50000763px;font-family:hack;-inkscape-font-specification:hack"
         d="m 272.79214,899.44885 q -1.42822,-2.2705 -2.4353,-4.35791 -1.00708,-2.06909 -1.68457,-4.13818 -1.35499,-4.1565 -1.35499,-8.22144 0,-4.04663 1.35499,-8.22144 0.6958,-2.10571 1.70288,-4.1748 1.00708,-2.0874 2.41699,-4.28467 l 2.92969,0 q -1.30005,2.21558 -2.17896,4.24805 -0.86059,2.01416 -1.44653,4.06494 -0.62256,2.16064 -0.91553,4.21143 -0.29297,2.05078 -0.29297,4.15649 0,2.16065 0.29297,4.21143 0.31128,2.03247 0.91553,4.13818 0.60425,2.10572 1.48315,4.13819 0.87891,2.03247 2.14234,4.22973 l -2.92969,0 0,0 z" />
      <path
         id="path4242"
         style="font-style:normal;font-variant:normal;font-weight:normal;font-stretch:normal;font-size:37.50000763px;font-family:hack;-inkscape-font-specification:hack"
         d="m 316.68252,867.16735 3.18604,0 0,10.16236 -3.18604,0 0,-10.16236 z" />
      <path
         id="path4244"
         style="font-style:normal;font-variant:normal;font-weight:normal;font-stretch:normal;font-size:37.50000763px;font-family:hack;-inkscape-font-specification:hack"
         d="m 344.60612,894.65149 q -1.46484,0 -2.63672,-0.45776 -1.15356,-0.45777 -2.03247,-1.48316 -1.66626,-1.94092 -1.66626,-5.49316 l 0,-18.5669 -5.40161,0 0,-2.63672 8.77075,0 0,21.20362 q 0,2.28881 0.84229,3.42407 0.43945,0.60425 1.0437,0.87891 0.62256,0.27465 1.40991,0.27465 l 3.93677,0 0,2.85645 -4.26636,0 0,0 z" />
      <path
         id="path4246"
         style="font-style:normal;font-variant:normal;font-weight:normal;font-stretch:normal;font-size:37.50000763px;font-family:hack;-inkscape-font-specification:hack"
         d="m 363.41107,895.03601 q -2.10572,0 -3.75367,-0.67749 -1.62964,-0.6958 -2.76489,-2.06909 -1.15356,-1.42822 -1.70288,-3.44239 -0.54932,-2.03247 -0.54932,-4.59594 0,-5.2002 2.2522,-7.9834 2.2522,-2.7649 6.51856,-2.7649 2.19726,0 3.80859,0.71411 1.62964,0.69581 2.72827,2.05079 2.2522,2.7832 2.2522,7.96509 0,2.6184 -0.56763,4.65088 -0.54931,2.03247 -1.68457,3.40576 -1.09863,1.35498 -2.74658,2.05078 -1.62964,0.6958 -3.79028,0.6958 z m 0,-2.85645 q 2.58178,0 3.90014,-2.01416 1.31836,-1.99585 1.31836,-5.89599 0,-3.90015 -1.31836,-5.91431 -1.31836,-1.99585 -3.90014,-1.99585 -2.56348,0 -3.88184,1.99585 -1.31836,2.01416 -1.31836,5.91431 0,3.90014 1.31836,5.89599 1.31836,2.01416 3.88184,2.01416 z" />
      <path
         id="path4248"
         style="font-style:normal;font-variant:normal;font-weight:normal;font-stretch:normal;font-size:37.50000763px;font-family:hack;-inkscape-font-specification:hack"
         d="m 385.695,902.56165 q -0.71411,0 -1.42822,-0.0733 -0.71411,-0.0549 -1.48316,-0.1831 -0.75073,-0.12817 -1.50146,-0.31128 -0.73242,-0.18311 -1.53809,-0.43945 l 0,-3.33252 q 0.89722,0.42114 1.72119,0.73242 0.84229,0.31128 1.53809,0.51269 1.42822,0.40284 2.76489,0.40284 1.35498,0 2.30713,-0.36621 0.95215,-0.36622 1.59302,-1.13526 1.24512,-1.46484 1.24512,-4.6875 l 0,-2.4353 q -0.78735,1.70288 -2.19727,2.56347 -1.3916,0.84229 -3.36914,0.84229 -3.60718,0 -5.74951,-2.87476 -2.14234,-2.87475 -2.14234,-7.69043 0,-4.81567 2.14234,-7.70874 1.08032,-1.44653 2.49023,-2.16065 1.42823,-0.71411 3.27759,-0.71411 0.95215,0 1.77613,0.20142 0.84228,0.1831 1.53808,0.58594 1.3916,0.80566 2.23389,2.4353 l 0.32959,-2.65503 3.03955,0 0,19.11622 q 0,4.59594 -2.17896,6.99463 -2.16064,2.38037 -6.40869,2.38037 z m 0.38452,-10.71167 q 2.38038,0 3.60718,-1.99585 1.22681,-1.99585 1.22681,-5.76783 0,-3.80859 -1.22681,-5.76782 -0.64087,-1.0437 -1.57471,-1.50147 -0.91552,-0.45776 -2.05078,-0.45776 -2.45361,0 -3.75366,1.95923 -1.30005,1.95923 -1.30005,5.78613 0,3.75367 1.31836,5.74952 1.31836,1.99585 3.75366,1.99585 z" />
      <path
         id="path4250"
         style="font-style:normal;font-variant:normal;font-weight:normal;font-stretch:normal;font-size:37.50000763px;font-family:hack;-inkscape-font-specification:hack"
         d="m 408.2536,902.56165 q -0.71412,0 -1.42823,-0.0733 -0.71411,-0.0549 -1.48315,-0.1831 -0.75073,-0.12817 -1.50147,-0.31128 -0.73242,-0.18311 -1.53808,-0.43945 l 0,-3.33252 q 0.89721,0.42114 1.72119,0.73242 0.84228,0.31128 1.53808,0.51269 1.42823,0.40284 2.7649,0.40284 1.35498,0 2.30713,-0.36621 0.95215,-0.36622 1.59302,-1.13526 1.24511,-1.46484 1.24511,-4.6875 l 0,-2.4353 q -0.78735,1.70288 -2.19726,2.56347 -1.39161,0.84229 -3.36914,0.84229 -3.60718,0 -5.74952,-2.87476 -2.14233,-2.87475 -2.14233,-7.69043 0,-4.81567 2.14233,-7.70874 1.08032,-1.44653 2.49024,-2.16065 1.42822,-0.71411 3.27759,-0.71411 0.95214,0 1.77612,0.20142 0.84228,0.1831 1.53809,0.58594 1.3916,0.80566 2.23388,2.4353 l 0.32959,-2.65503 3.03955,0 0,19.11622 q 0,4.59594 -2.17895,6.99463 -2.16065,2.38037 -6.40869,2.38037 z m 0.38452,-10.71167 q 2.38037,0 3.60718,-1.99585 1.2268,-1.99585 1.2268,-5.76783 0,-3.80859 -1.2268,-5.76782 -0.64087,-1.0437 -1.57471,-1.50147 -0.91553,-0.45776 -2.05078,-0.45776 -2.45362,0 -3.75367,1.95923 -1.30005,1.95923 -1.30005,5.78613 0,3.75367 1.31836,5.74952 1.31836,1.99585 3.75367,1.99585 z" />
      <path
         id="path4252"
         style="font-style:normal;font-variant:normal;font-weight:normal;font-stretch:normal;font-size:37.50000763px;font-family:hack;-inkscape-font-specification:hack"
         d="m 432.20379,895.03601 q -2.36206,0 -4.24805,-0.71411 -1.86767,-0.73242 -3.18603,-2.14234 -1.31836,-1.40991 -2.01416,-3.38745 -0.67749,-1.99585 -0.67749,-4.50439 0,-2.58179 0.6958,-4.52271 0.6958,-1.95923 1.92261,-3.33252 1.33667,-1.48315 3.1311,-2.19726 1.79443,-0.73243 3.86353,-0.73243 2.05078,0 3.58886,0.67749 1.5564,0.67749 2.65503,1.95923 1.09864,1.28174 1.66626,3.1128 0.58594,1.81274 0.58594,4.15649 l 0,1.64795 -14.59351,0 0,0.10986 q 0,3.35083 1.75782,5.18189 0.84228,0.87891 2.03247,1.35498 1.20849,0.47607 2.87475,0.47607 1.66626,0 3.38745,-0.51269 1.77613,-0.53101 3.75367,-1.5564 l 0,3.35083 q -0.97046,0.40284 -1.88599,0.6958 -0.91553,0.29297 -1.81274,0.49439 -0.87891,0.20142 -1.75782,0.29297 -0.8789,0.0915 -1.7395,0.0915 z m 4.61426,-12.61597 q -0.0366,-1.57471 -0.42114,-2.69165 -0.36621,-1.13525 -0.97046,-1.83105 -0.65918,-0.76905 -1.62964,-1.15357 -0.97046,-0.38452 -2.17896,-0.38452 -2.47192,0 -4.02832,1.61133 -1.5747,1.62964 -1.86767,4.46777 l 11.09619,-0.0183 z" />
      <path
         id="path4254"
         style="font-style:normal;font-variant:normal;font-weight:normal;font-stretch:normal;font-size:37.50000763px;font-family:hack;-inkscape-font-specification:hack"
         d="m 452.60174,895.03601 q -1.94092,0 -3.40576,-0.76904 -1.46485,-0.76905 -2.45362,-2.12403 -1.06201,-1.44653 -1.59301,-3.44238 -0.53101,-2.01416 -0.53101,-4.48608 0,-2.43531 0.5127,-4.43116 0.531,-2.01416 1.61132,-3.44238 1.08033,-1.42822 2.58179,-2.12403 1.50147,-0.71411 3.27759,-0.71411 1.86768,0 3.25928,0.78736 1.40991,0.80566 2.21557,2.32544 l 0,-10.60181 3.36915,0 0,28.49121 -3.03956,0 -0.32959,-2.58178 q -0.42114,0.73242 -0.95214,1.31836 -0.53101,0.56762 -1.28174,0.98877 -1.3916,0.80566 -3.24097,0.80566 z m 0.47607,-2.85645 q 2.47193,0 3.73536,-2.01416 1.26342,-1.99585 1.26342,-5.89599 0,-3.90015 -1.26342,-5.91431 -0.58594,-0.93384 -1.50147,-1.46484 -0.91553,-0.53101 -2.21558,-0.53101 -2.45361,0 -3.68042,1.99585 -1.24511,2.01416 -1.24511,5.91431 0,3.90014 1.24511,5.9143 0.64087,1.04371 1.57471,1.51978 0.93384,0.47607 2.0874,0.47607 z" />
      <path
         id="path4256"
         style="font-style:normal;font-variant:normal;font-weight:normal;font-stretch:normal;font-size:37.50000763px;font-family:hack;-inkscape-font-specification:hack"
         d="m 476.20404,895.03601 q -0.98877,0 -1.84937,-0.14648 -0.84229,-0.12818 -1.61133,-0.38453 -0.71411,-0.25634 -1.48315,-0.65917 -0.75074,-0.42115 -1.33667,-0.95215 -0.56763,-0.5127 -1.00708,-1.2085 -0.43946,-0.6958 -0.75074,-1.7395 -0.14648,-0.45777 -0.25634,-1.02539 -0.0916,-0.56763 -0.1648,-1.28174 -0.0549,-0.71411 -0.0915,-1.59302 -0.0366,-0.89722 -0.0366,-2.03247 l 0,-16.84571 3.71704,0 0,18.53028 q 0,1.99585 0.10986,2.83814 0.10987,0.86059 0.38452,1.31836 0.58594,1.08032 1.70288,1.62963 1.09864,0.54932 2.67335,0.54932 1.59301,0 2.69165,-0.54932 1.13525,-0.56762 1.70288,-1.62963 0.14648,-0.27466 0.23803,-0.56763 0.0916,-0.29297 0.14649,-0.73242 0.10986,-0.84229 0.10986,-2.81983 l 0,-18.5669 3.69873,0 0,16.84571 q 0,1.2085 -0.0366,2.14233 -0.0366,0.91553 -0.10986,1.62964 -0.0549,0.6958 -0.1648,1.22681 -0.0915,0.53101 -0.20141,0.93384 -0.25635,0.91553 -0.71411,1.64795 -0.45777,0.73242 -1.08033,1.30005 -0.60424,0.54931 -1.35498,0.95215 -0.73242,0.40283 -1.44653,0.65917 -0.67749,0.23804 -1.53809,0.38453 -0.86059,0.14648 -1.94091,0.14648 z" />
      <path
         id="path4258"
         style="font-style:normal;font-variant:normal;font-weight:normal;font-stretch:normal;font-size:37.50000763px;font-family:hack;-inkscape-font-specification:hack"
         d="m 498.28655,895.03601 q -0.80566,0 -1.66626,-0.0915 -0.84228,-0.0732 -1.62963,-0.21973 -0.71412,-0.14648 -1.68458,-0.40283 -0.95214,-0.25635 -1.9226,-0.56763 l 0,-3.479 q 1.17187,0.58594 1.99585,0.91553 0.82397,0.31127 1.61133,0.531 0.84228,0.23804 1.62963,0.36621 0.78736,0.12818 1.62964,0.12818 2.21558,0 3.4607,-0.91553 0.64087,-0.47608 0.93384,-1.11695 0.29296,-0.64086 0.29296,-1.30004 0,-1.28174 -1.08032,-2.0691 -1.08032,-0.80566 -3.40576,-1.28173 l -0.14648,-0.0366 -1.26343,-0.25634 q -1.37329,-0.27466 -2.45362,-0.73243 -1.06201,-0.45776 -1.79443,-1.19018 -1.33667,-1.33667 -1.33667,-3.68042 0,-1.48316 0.49438,-2.61841 0.5127,-1.13526 1.50147,-1.92261 1.0437,-0.84228 2.49023,-1.2085 1.44654,-0.38452 3.24097,-0.38452 0.78736,0 1.57471,0.0733 0.78735,0.0732 1.5564,0.21972 0.6958,0.14649 1.44653,0.38452 0.76904,0.21973 1.53809,0.53101 l 0,3.2959 q -1.46485,-0.84229 -2.91138,-1.26343 -0.73242,-0.20142 -1.48316,-0.31128 -0.73242,-0.10986 -1.5747,-0.10986 -1.06202,0 -1.92261,0.1831 -0.84229,0.18311 -1.40991,0.54932 -1.13526,0.75073 -1.13526,2.28882 0,0.64087 0.20142,1.17187 0.21972,0.53101 0.64087,0.8606 0.42114,0.32959 1.3916,0.65918 0.98877,0.31128 2.80151,0.65918 l 1.35498,0.25635 q 1.31836,0.25635 2.2522,0.73242 0.93384,0.47607 1.5564,1.17187 1.28174,1.40992 1.28174,3.73536 0,1.5747 -0.56763,2.74658 -0.54932,1.15356 -1.59302,1.97754 -1.11694,0.87891 -2.61841,1.30005 -1.48315,0.42114 -3.27759,0.42114 z" />
      <path
         id="path4260"
         style="font-style:normal;font-variant:normal;font-weight:normal;font-stretch:normal;font-size:37.50000763px;font-family:hack;-inkscape-font-specification:hack"
         d="m 522.43817,895.03601 q -2.36206,0 -4.24805,-0.71411 -1.86768,-0.73242 -3.18604,-2.14234 -1.31836,-1.40991 -2.01416,-3.38745 -0.67749,-1.99585 -0.67749,-4.50439 0,-2.58179 0.6958,-4.52271 0.6958,-1.95923 1.92261,-3.33252 1.33667,-1.48315 3.1311,-2.19726 1.79444,-0.73243 3.86353,-0.73243 2.05078,0 3.58887,0.67749 1.5564,0.67749 2.65503,1.95923 1.09863,1.28174 1.66626,3.1128 0.58594,1.81274 0.58594,4.15649 l 0,1.64795 -14.59351,0 0,0.10986 q 0,3.35083 1.75781,5.18189 0.84229,0.87891 2.03247,1.35498 1.2085,0.47607 2.87476,0.47607 1.66626,0 3.38745,-0.51269 1.77612,-0.53101 3.75366,-1.5564 l 0,3.35083 q -0.97046,0.40284 -1.88598,0.6958 -0.91553,0.29297 -1.81275,0.49439 -0.8789,0.20142 -1.75781,0.29297 -0.87891,0.0915 -1.7395,0.0915 z m 4.61426,-12.61597 q -0.0366,-1.57471 -0.42115,-2.69165 -0.36621,-1.13525 -0.97046,-1.83105 -0.65918,-0.76905 -1.62964,-1.15357 -0.97046,-0.38452 -2.17895,-0.38452 -2.47193,0 -4.02832,1.61133 -1.57471,1.62964 -1.86768,4.46777 l 11.0962,-0.0183 z" />
      <path
         id="path4262"
         style="font-style:normal;font-variant:normal;font-weight:normal;font-stretch:normal;font-size:37.50000763px;font-family:hack;-inkscape-font-specification:hack"
         d="m 538.1303,873.99719 3.05787,0 0.32959,4.01001 q 0.86059,-2.17896 2.60009,-3.35083 1.7212,-1.15357 4.11988,-1.15357 1.24511,0 2.34375,0.31128 0.531,0.14649 1.06201,0.40283 0.53101,0.23804 1.00708,0.56763 l 0,3.44239 q -1.0437,-0.84229 -2.19727,-1.22681 -1.13525,-0.38452 -2.47192,-0.38452 -3.1311,0 -4.79736,1.97754 -1.66626,1.95923 -1.66626,5.71289 l 0,10.19897 -3.38746,0 0,-20.50781 z" />
      <path
         id="path4264"
         style="font-style:normal;font-variant:normal;font-weight:normal;font-stretch:normal;font-size:37.50000763px;font-family:hack;-inkscape-font-specification:hack"
         d="m 558.83956,891.39221 5.7312,0 0,-21.11206 -5.7312,0 0,-3.1128 15.17945,0 0,3.1128 -5.7312,0 0,21.11206 5.7312,0 0,3.11279 -15.17945,0 0,-3.11279 z" />
      <path
         id="path4266"
         style="font-style:normal;font-variant:normal;font-weight:normal;font-stretch:normal;font-size:37.50000763px;font-family:hack;-inkscape-font-specification:hack"
         d="m 581.28829,873.99719 3.03955,0 0.32959,3.07617 q 0.91553,-1.77612 2.43531,-2.67334 1.51977,-0.89722 3.62549,-0.89722 1.64795,0 2.80151,0.53101 1.15357,0.53101 1.9043,1.51978 1.53808,2.06909 1.53808,6.24389 l 0,12.70752 -3.38745,0 0,-12.70752 q 0,-2.76489 -0.97046,-4.06494 -0.97046,-1.30005 -3.05786,-1.30005 -1.2085,0 -2.10571,0.42114 -0.87891,0.42115 -1.50147,1.24512 -1.28174,1.66626 -1.28174,4.81568 l 0,11.59057 -3.36914,0 0,-20.50781 z" />
      <path
         id="path4268"
         style="font-style:normal;font-variant:normal;font-weight:normal;font-stretch:normal;font-size:37.50000763px;font-family:hack;-inkscape-font-specification:hack"
         d="m 602.89471,867.16735 7.61719,0 q 4.50439,0 6.90307,2.03247 1.2085,1.02539 1.79444,2.49024 0.60425,1.46484 0.60425,3.31421 0,1.44653 -0.36621,2.54517 -0.36622,1.08032 -1.09864,1.94091 -1.46484,1.7212 -4.15649,2.10572 0.73242,0.1831 1.35498,0.54931 0.62256,0.3479 1.08032,0.82398 0.5127,0.531 1.09863,1.50146 0.60425,0.95215 1.40992,2.56348 l 3.71704,7.4707 -3.97339,0 -3.25928,-6.90307 q -0.71411,-1.51978 -1.35498,-2.45362 -0.62256,-0.93383 -1.17188,-1.35498 -0.56762,-0.43945 -1.33667,-0.64087 -0.75073,-0.20141 -1.61132,-0.20141 l -3.53394,0 0,11.55395 -3.71704,0 0,-27.33765 z m 7.76367,12.74415 q 2.65503,0 3.95508,-1.19019 0.64087,-0.58594 0.97046,-1.50146 0.32959,-0.91553 0.32959,-2.10572 0,-1.19018 -0.3479,-2.10571 -0.32959,-0.91553 -1.02539,-1.5564 -0.65918,-0.58594 -1.66626,-0.91553 -0.98877,-0.32959 -2.36206,-0.32959 l -3.90015,0 0,9.7046 4.04663,0 z" />
      <path
         id="path4270"
         style="font-style:normal;font-variant:normal;font-weight:normal;font-stretch:normal;font-size:37.50000763px;font-family:hack;-inkscape-font-specification:hack"
         d="m 634.11425,895.03601 q -2.10571,0 -3.75366,-0.67749 -1.62964,-0.6958 -2.76489,-2.06909 -1.15357,-1.42822 -1.70288,-3.44239 -0.54932,-2.03247 -0.54932,-4.59594 0,-5.2002 2.2522,-7.9834 2.25219,-2.7649 6.51855,-2.7649 2.19727,0 3.8086,0.71411 1.62964,0.69581 2.72827,2.05079 2.2522,2.7832 2.2522,7.96509 0,2.6184 -0.56763,4.65088 -0.54932,2.03247 -1.68457,3.40576 -1.09863,1.35498 -2.74658,2.05078 -1.62964,0.6958 -3.79029,0.6958 z m 0,-2.85645 q 2.58179,0 3.90015,-2.01416 1.31836,-1.99585 1.31836,-5.89599 0,-3.90015 -1.31836,-5.91431 -1.31836,-1.99585 -3.90015,-1.99585 -2.56347,0 -3.88183,1.99585 -1.31836,2.01416 -1.31836,5.91431 0,3.90014 1.31836,5.89599 1.31836,2.01416 3.88183,2.01416 z" />
      <path
         id="path4272"
         style="font-style:normal;font-variant:normal;font-weight:normal;font-stretch:normal;font-size:37.50000763px;font-family:hack;-inkscape-font-specification:hack"
         d="m 660.42651,894.65149 q -1.46484,0 -2.63672,-0.45776 -1.15356,-0.45777 -2.03247,-1.48316 -1.66626,-1.94092 -1.66626,-5.49316 l 0,-18.5669 -5.40161,0 0,-2.63672 8.77075,0 0,21.20362 q 0,2.28881 0.84229,3.42407 0.43945,0.60425 1.0437,0.87891 0.62256,0.27465 1.40991,0.27465 l 3.93677,0 0,2.85645 -4.26636,0 0,0 z" />
      <path
         id="path4274"
         style="font-style:normal;font-variant:normal;font-weight:normal;font-stretch:normal;font-size:37.50000763px;font-family:hack;-inkscape-font-specification:hack"
         d="m 680.34838,895.03601 q -2.36206,0 -4.24804,-0.71411 -1.86768,-0.73242 -3.18604,-2.14234 -1.31836,-1.40991 -2.01416,-3.38745 -0.67749,-1.99585 -0.67749,-4.50439 0,-2.58179 0.6958,-4.52271 0.6958,-1.95923 1.92261,-3.33252 1.33667,-1.48315 3.1311,-2.19726 1.79444,-0.73243 3.86353,-0.73243 2.05078,0 3.58887,0.67749 1.55639,0.67749 2.65503,1.95923 1.09863,1.28174 1.66626,3.1128 0.58593,1.81274 0.58593,4.15649 l 0,1.64795 -14.59351,0 0,0.10986 q 0,3.35083 1.75782,5.18189 0.84228,0.87891 2.03247,1.35498 1.2085,0.47607 2.87476,0.47607 1.66626,0 3.38745,-0.51269 1.77612,-0.53101 3.75366,-1.5564 l 0,3.35083 q -0.97046,0.40284 -1.88599,0.6958 -0.91552,0.29297 -1.81274,0.49439 -0.87891,0.20142 -1.75781,0.29297 -0.87891,0.0915 -1.73951,0.0915 z m 4.61426,-12.61597 q -0.0366,-1.57471 -0.42114,-2.69165 -0.36621,-1.13525 -0.97046,-1.83105 -0.65918,-0.76905 -1.62964,-1.15357 -0.97046,-0.38452 -2.17895,-0.38452 -2.47193,0 -4.02833,1.61133 -1.5747,1.62964 -1.86767,4.46777 l 11.09619,-0.0183 z" />
      <path
         id="path4276"
         style="font-style:normal;font-variant:normal;font-weight:normal;font-stretch:normal;font-size:37.50000763px;font-family:hack;-inkscape-font-specification:hack"
         d="m 700.17871,867.16735 3.18603,0 0,10.16236 -3.18603,0 0,-10.16236 z" />
      <path
         id="path4278"
         style="font-style:normal;font-variant:normal;font-weight:normal;font-stretch:normal;font-size:37.50000763px;font-family:hack;-inkscape-font-specification:hack"
         d="m 720.39355,899.68689 q 4.46777,-1.99585 4.61426,-6.11572 -0.21973,0.0366 -0.40283,0.0549 -0.1648,0.0183 -0.32959,0.0183 -0.58594,0 -1.09864,-0.1648 -0.51269,-0.1831 -0.91553,-0.54931 -0.80566,-0.71411 -0.80566,-2.01416 0,-0.60425 0.20142,-1.13526 0.20141,-0.54931 0.64087,-0.93384 0.36621,-0.31127 0.91552,-0.51269 0.54932,-0.21973 1.2085,-0.21973 1.5564,0 2.41699,1.24512 0.84229,1.22681 0.84229,3.44238 0,3.13111 -1.68457,5.40162 -1.68457,2.25219 -4.76075,3.38745 l -0.84228,-1.9043 z" />
      <path
         id="path4280"
         style="font-style:normal;font-variant:normal;font-weight:normal;font-stretch:normal;font-size:37.50000763px;font-family:hack;-inkscape-font-specification:hack"
         d="m 767.85449,867.16735 3.18603,0 0,10.16236 -3.18603,0 0,-10.16236 z" />
      <path
         id="path4282"
         style="font-style:normal;font-variant:normal;font-weight:normal;font-stretch:normal;font-size:37.50000763px;font-family:hack;-inkscape-font-specification:hack"
         d="m 789.79052,867.16735 4.48609,0 8.36792,27.33765 -3.82691,0 -2.01416,-7.1228 -9.57642,0 -1.97753,7.1228 -3.82691,0 8.36792,-27.33765 z m 6.13404,17.24854 -3.90015,-13.98926 -3.90015,13.98926 7.8003,0 z" />
      <path
         id="path4284"
         style="font-style:normal;font-variant:normal;font-weight:normal;font-stretch:normal;font-size:37.50000763px;font-family:hack;-inkscape-font-specification:hack"
         d="m 805.81225,867.16735 5.5481,0 q 6.2622,0 9.22851,3.33252 2.96631,3.33252 2.96631,10.36377 0,6.99464 -2.96631,10.30884 -2.96631,3.33252 -9.22851,3.33252 l -5.5481,0 0,-27.33765 z m 5.47485,24.2981 q 4.66919,0 6.51856,-2.30713 0.93384,-1.15356 1.3916,-3.20434 0.45776,-2.05078 0.45776,-5.12696 0,-3.02124 -0.45776,-5.09033 -0.43945,-2.0874 -1.37329,-3.24097 -0.93384,-1.17187 -2.6001,-1.72119 -1.64795,-0.56763 -3.93677,-0.56763 l -1.75781,0 0,21.25855 1.75781,0 z" />
      <path
         id="path4286"
         style="font-style:normal;font-variant:normal;font-weight:normal;font-stretch:normal;font-size:37.50000763px;font-family:hack;-inkscape-font-specification:hack"
         d="m 827.437,867.16735 4.94385,0 4.72413,13.91602 4.76074,-13.91602 4.96216,0 0,27.33765 -3.42408,0 0,-24.15161 -4.8706,14.4104 -2.80152,0 -4.88891,-14.4104 0,24.15161 -3.40577,0 0,-27.33765 z" />
      <path
         id="path4288"
         style="font-style:normal;font-variant:normal;font-weight:normal;font-stretch:normal;font-size:37.50000763px;font-family:hack;-inkscape-font-specification:hack"
         d="m 852.10131,891.39221 5.7312,0 0,-21.11206 -5.7312,0 0,-3.1128 15.17945,0 0,3.1128 -5.7312,0 0,21.11206 5.7312,0 0,3.11279 -15.17945,0 0,-3.11279 z" />
      <path
         id="path4290"
         style="font-style:normal;font-variant:normal;font-weight:normal;font-stretch:normal;font-size:37.50000763px;font-family:hack;-inkscape-font-specification:hack"
         d="m 873.52465,867.16735 4.6875,0 9.22852,22.50367 0,-22.50367 3.57056,0 0,27.33765 -4.6875,0 -9.22852,-22.50366 0,22.50366 -3.57056,0 0,-27.33765 z" />
      <path
         id="path4292"
         style="font-style:normal;font-variant:normal;font-weight:normal;font-stretch:normal;font-size:37.50000763px;font-family:hack;-inkscape-font-specification:hack"
         d="m 903.20605,867.16735 3.18603,0 0,10.16236 -3.18603,0 0,-10.16236 z" />
      <path
         id="path4294"
         style="font-style:normal;font-variant:normal;font-weight:normal;font-stretch:normal;font-size:37.50000763px;font-family:hack;-inkscape-font-specification:hack"
         d="m 947.40771,899.44885 q 2.41699,-4.22973 3.6438,-8.40454 0.56763,-1.95923 0.8789,-4.06494 0.31128,-2.10571 0.31128,-4.24805 0,-2.05078 -0.31128,-4.15649 -0.29296,-2.12403 -0.8789,-4.17481 -0.56763,-1.95923 -1.48316,-4.06494 -0.89721,-2.10572 -2.16064,-4.28467 l 2.92969,0 q 2.80151,4.3396 4.11987,8.45947 1.35498,4.17481 1.35498,8.22144 0,4.08325 -1.35498,8.25806 -1.35498,4.15649 -4.11987,8.45947 l -2.92969,0 0,0 z" />
      <path
         id="path4296"
         style="fill:#001e66;fill-opacity:1"
         d="m 83.557487,921.99688 2.949219,0 0.3125,1.875 Q 87.463737,922.7 88.4403,922.075 q 0.957031,-0.60546 2.207031,-0.60546 1.445313,0 2.460938,0.68359 0.957031,0.66406 1.523437,2.07031 0.683594,-1.42578 1.699219,-2.08984 1.015625,-0.66406 2.460937,-0.66406 1.347658,0 2.285158,0.52734 0.9375,0.50781 1.44531,1.50391 1.07422,2.03125 1.07422,7.69531 l 0,12.67578 -3.28125,0 0,-12.51953 q 0,-1.25 -0.0391,-2.1875 -0.0195,-0.9375 -0.0977,-1.6211 -0.0586,-0.70312 -0.15625,-1.17187 -0.09766,-0.48828 -0.234374,-0.78125 -0.214844,-0.50781 -0.664062,-0.80078 -0.449219,-0.3125 -1.269532,-0.3125 -0.742187,0 -1.25,0.29297 -0.507812,0.27343 -0.800781,0.89843 -0.332031,0.6836 -0.46875,2.03125 -0.136719,1.32813 -0.136719,3.65235 l 0,12.51953 -3.28125,0 0,-12.51953 q 0,-1.42578 -0.03906,-2.40235 -0.03906,-0.99609 -0.117188,-1.66015 -0.07813,-0.66406 -0.195312,-1.05469 -0.09766,-0.41016 -0.214844,-0.66406 -0.253906,-0.50781 -0.742187,-0.80078 -0.46875,-0.29297 -1.230469,-0.29297 -0.820313,0 -1.289063,0.33203 -0.449218,0.3125 -0.683593,0.83984 -0.136719,0.29297 -0.253907,0.74219 -0.09766,0.44922 -0.175781,1.13281 -0.07813,0.66407 -0.117187,1.60157 -0.03906,0.9375 -0.03906,2.22656 l 0,12.51953 -3.261719,0 0,-21.875 z" />
      <path
         id="path4298"
         style="fill:#001e66;fill-opacity:1"
         d="m 118.71374,944.43829 q -2.51953,0 -4.53125,-0.76172 -1.99219,-0.78125 -3.39844,-2.28516 -1.40625,-1.50391 -2.14844,-3.61328 -0.72265,-2.12891 -0.72265,-4.80469 0,-2.7539 0.74218,-4.82422 0.74219,-2.08984 2.05078,-3.55468 1.42579,-1.58204 3.33985,-2.34375 1.91406,-0.78125 4.12109,-0.78125 2.1875,0 3.82813,0.72265 1.66015,0.72266 2.83203,2.08985 1.17187,1.36718 1.77734,3.32031 0.625,1.93359 0.625,4.43359 l 0,1.75781 -15.5664,0 0,0.11719 q 0,3.57422 1.875,5.52735 0.89843,0.9375 2.16796,1.44531 1.28907,0.50781 3.06641,0.50781 1.77734,0 3.61328,-0.54687 1.89453,-0.56641 4.00391,-1.66016 l 0,3.57422 q -1.03516,0.42969 -2.01172,0.74219 -0.97656,0.3125 -1.93359,0.52734 -0.9375,0.21484 -1.875,0.3125 -0.9375,0.0977 -1.85547,0.0977 z m 4.92187,-13.45704 q -0.0391,-1.67968 -0.44922,-2.87109 -0.39062,-1.21094 -1.03515,-1.95312 -0.70313,-0.82032 -1.73828,-1.23047 -1.03516,-0.41016 -2.32422,-0.41016 -2.63672,0 -4.29688,1.71875 -1.67969,1.73828 -1.99219,4.76563 l 11.83594,-0.0195 z" />
      <path
         id="path4300"
         style="fill:#001e66;fill-opacity:1"
         d="m 145.3153,943.95 q -4.02344,0 -5.70313,-1.62109 -1.66015,-1.60156 -1.66015,-5.58594 l 0,-11.95312 -5.83985,0 0,-2.79297 5.83985,0 0,-5.72266 3.59375,-1.5625 0,7.28516 8.16406,0 0,2.79297 -8.16406,0 0,11.95312 q 0,2.40235 0.91797,3.37891 0.89843,0.95703 3.20312,0.95703 l 4.04297,0 0,2.87109 -4.39453,0 0,0 z" />
      <path
         id="path4302"
         style="fill:#001e66;fill-opacity:1"
         d="m 157.42467,913.48125 3.59375,0 0,11.79688 q 0.97657,-1.89453 2.59766,-2.85156 1.62109,-0.95703 3.86719,-0.95703 1.75781,0 2.98828,0.5664 1.23047,0.56641 2.03125,1.6211 1.64062,2.20703 1.64062,6.66015 l 0,13.55469 -3.61328,0 0,-13.55469 q 0,-2.94922 -1.03515,-4.33594 -1.03516,-1.38671 -3.26172,-1.38671 -1.28906,0 -2.2461,0.44921 -0.9375,0.44922 -1.60156,1.32813 -1.36719,1.77734 -1.36719,5.13672 l 0,12.36328 -3.59375,0 0,-30.39063 z" />
      <path
         id="path4304"
         style="fill:#001e66;fill-opacity:1"
         d="m 189.70983,944.43829 q -2.24609,0 -4.00391,-0.72266 -1.73828,-0.74219 -2.94921,-2.20703 -1.23047,-1.52344 -1.81641,-3.67188 -0.58594,-2.16797 -0.58594,-4.90234 0,-5.54688 2.40235,-8.51563 2.40234,-2.94921 6.95312,-2.94921 2.34375,0 4.0625,0.76171 1.73828,0.74219 2.91016,2.1875 2.40234,2.96875 2.40234,8.4961 0,2.79297 -0.60547,4.96094 -0.58594,2.16796 -1.79687,3.63281 -1.17188,1.44531 -2.92969,2.1875 -1.73828,0.74219 -4.04297,0.74219 z m 0,-3.04688 q 2.75391,0 4.16016,-2.14844 1.40625,-2.1289 1.40625,-6.28906 0,-4.16016 -1.40625,-6.30859 -1.40625,-2.12891 -4.16016,-2.12891 -2.73437,0 -4.14062,2.12891 -1.40625,2.14843 -1.40625,6.30859 0,4.16016 1.40625,6.28906 1.40625,2.14844 4.14062,2.14844 z" />
      <path
         id="path4306"
         style="fill:#001e66;fill-opacity:1"
         d="m 212.65905,944.43829 q -2.07031,0 -3.63281,-0.82032 -1.5625,-0.82031 -2.61719,-2.26562 -1.13281,-1.54297 -1.69922,-3.67188 -0.56641,-2.14843 -0.56641,-4.78515 0,-2.59766 0.54688,-4.72657 0.56641,-2.14843 1.71875,-3.67187 1.15234,-1.52344 2.75391,-2.26563 1.60156,-0.76171 3.49609,-0.76171 1.99219,0 3.47656,0.83984 1.50391,0.85937 2.36328,2.48047 l 0,-11.3086 3.59375,0 0,30.39063 -3.24218,0 -0.35157,-2.75391 q -0.44922,0.78125 -1.01562,1.40625 -0.56641,0.60547 -1.36719,1.05469 -1.48437,0.85938 -3.45703,0.85938 z m 0.50781,-3.04688 q 2.63672,0 3.98438,-2.14844 1.34765,-2.1289 1.34765,-6.28906 0,-4.16016 -1.34765,-6.30859 -0.625,-0.9961 -1.60157,-1.5625 -0.97656,-0.56641 -2.36328,-0.56641 -2.61718,0 -3.92578,2.12891 -1.32812,2.14843 -1.32812,6.30859 0,4.16016 1.32812,6.30859 0.6836,1.11329 1.67969,1.6211 0.99609,0.50781 2.22656,0.50781 z" />
      <path
         id="path4308"
         style="fill:#001e66;fill-opacity:1"
         d="m 230.35436,914.71172 17.16797,0 0,3.32032 -13.20312,0 0,8.98437 11.97265,0 0,3.32031 -11.97265,0 0,13.53516 -3.96485,0 0,-29.16016 z" />
      <path
         id="path4310"
         style="fill:#001e66;fill-opacity:1"
         d="m 261.89733,944.43829 q -2.24609,0 -4.00391,-0.72266 -1.73828,-0.74219 -2.94921,-2.20703 -1.23047,-1.52344 -1.81641,-3.67188 -0.58594,-2.16797 -0.58594,-4.90234 0,-5.54688 2.40235,-8.51563 2.40234,-2.94921 6.95312,-2.94921 2.34375,0 4.0625,0.76171 1.73828,0.74219 2.91016,2.1875 2.40234,2.96875 2.40234,8.4961 0,2.79297 -0.60547,4.96094 -0.58594,2.16796 -1.79687,3.63281 -1.17188,1.44531 -2.92969,2.1875 -1.73828,0.74219 -4.04297,0.74219 z m 0,-3.04688 q 2.75391,0 4.16016,-2.14844 1.40625,-2.1289 1.40625,-6.28906 0,-4.16016 -1.40625,-6.30859 -1.40625,-2.12891 -4.16016,-2.12891 -2.73437,0 -4.14062,2.12891 -1.40625,2.14843 -1.40625,6.30859 0,4.16016 1.40625,6.28906 1.40625,2.14844 4.14062,2.14844 z" />
      <path
         id="path4312"
         style="fill:#001e66;fill-opacity:1"
         d="m 279.82702,921.99688 3.26172,0 0.35156,4.27734 q 0.91797,-2.32422 2.77344,-3.57422 1.83593,-1.23046 4.39453,-1.23046 1.32812,0 2.5,0.33203 0.5664,0.15625 1.13281,0.42968 0.56641,0.25391 1.07422,0.60547 l 0,3.67188 q -1.11328,-0.89844 -2.34375,-1.3086 -1.21094,-0.41015 -2.63672,-0.41015 -3.33984,0 -5.11719,2.10937 -1.77734,2.08985 -1.77734,6.09375 l 0,10.87891 -3.61328,0 0,-21.875 z" />
      <path
         id="path4314"
         style="fill:#001e66;fill-opacity:1"
         d="m 307.63952,914.71172 4.78515,0 8.92579,29.16016 -4.08204,0 -2.14843,-7.59766 -10.21485,0 -2.10937,7.59766 -4.08203,0 8.92578,-29.16016 z m 6.54297,18.39844 -4.16016,-14.92187 -4.16016,14.92187 8.32032,0 z" />
      <path
         id="path4316"
         style="fill:#001e66;fill-opacity:1"
         d="m 332.97155,944.43829 q -2.07031,0 -3.63281,-0.82032 -1.5625,-0.82031 -2.61719,-2.26562 -1.13281,-1.54297 -1.69922,-3.67188 -0.56641,-2.14843 -0.56641,-4.78515 0,-2.59766 0.54688,-4.72657 0.56641,-2.14843 1.71875,-3.67187 1.15234,-1.52344 2.75391,-2.26563 1.60156,-0.76171 3.49609,-0.76171 1.99219,0 3.47656,0.83984 1.50391,0.85937 2.36328,2.48047 l 0,-11.3086 3.59375,0 0,30.39063 -3.24218,0 -0.35157,-2.75391 q -0.44922,0.78125 -1.01562,1.40625 -0.56641,0.60547 -1.36719,1.05469 -1.48437,0.85938 -3.45703,0.85938 z m 0.50781,-3.04688 q 2.63672,0 3.98438,-2.14844 1.34765,-2.1289 1.34765,-6.28906 0,-4.16016 -1.34765,-6.30859 -0.625,-0.9961 -1.60157,-1.5625 -0.97656,-0.56641 -2.36328,-0.56641 -2.61718,0 -3.92578,2.12891 -1.32812,2.14843 -1.32812,6.30859 0,4.16016 1.32812,6.30859 0.6836,1.11329 1.67969,1.6211 0.99609,0.50781 2.22656,0.50781 z" />
      <path
         id="path4318"
         style="fill:#001e66;fill-opacity:1"
         d="m 348.24499,921.99688 2.94922,0 0.3125,1.875 q 0.64453,-1.17188 1.62109,-1.79688 0.95703,-0.60546 2.20703,-0.60546 1.44531,0 2.46094,0.68359 0.95703,0.66406 1.52344,2.07031 0.68359,-1.42578 1.69921,-2.08984 1.01563,-0.66406 2.46094,-0.66406 1.34766,0 2.28516,0.52734 0.9375,0.50781 1.44531,1.50391 1.07422,2.03125 1.07422,7.69531 l 0,12.67578 -3.28125,0 0,-12.51953 q 0,-1.25 -0.0391,-2.1875 -0.0195,-0.9375 -0.0977,-1.6211 -0.0586,-0.70312 -0.15625,-1.17187 -0.0977,-0.48828 -0.23437,-0.78125 -0.21485,-0.50781 -0.66407,-0.80078 -0.44922,-0.3125 -1.26953,-0.3125 -0.74219,0 -1.25,0.29297 -0.50781,0.27343 -0.80078,0.89843 -0.33203,0.6836 -0.46875,2.03125 -0.13672,1.32813 -0.13672,3.65235 l 0,12.51953 -3.28125,0 0,-12.51953 q 0,-1.42578 -0.0391,-2.40235 -0.0391,-0.99609 -0.11719,-1.66015 -0.0781,-0.66406 -0.19531,-1.05469 -0.0977,-0.41016 -0.21484,-0.66406 -0.25391,-0.50781 -0.74219,-0.80078 -0.46875,-0.29297 -1.23047,-0.29297 -0.82031,0 -1.28906,0.33203 -0.44922,0.3125 -0.6836,0.83984 -0.13672,0.29297 -0.2539,0.74219 -0.0977,0.44922 -0.17578,1.13281 -0.0781,0.66407 -0.11719,1.60157 -0.0391,0.9375 -0.0391,2.22656 l 0,12.51953 -3.26172,0 0,-21.875 z" />
      <path
         id="path4320"
         style="fill:#001e66;fill-opacity:1"
         d="m 380.39342,918.03204 q -0.58593,0 -0.58593,-0.58594 l 0,-3.37891 q 0,-0.58594 0.58593,-0.58594 l 2.8125,0 q 0.58594,0 0.58594,0.58594 l 0,3.37891 q 0,0.58594 -0.58594,0.58594 l -2.8125,0 z m 6.5625,25.99609 q -1.5625,0 -2.8125,-0.48828 -1.23046,-0.48828 -2.16796,-1.58203 -1.77735,-2.07032 -1.77735,-5.85938 l 0,-11.28906 -4.78515,0 0,-2.8125 8.3789,0 0,14.10156 q 0,2.44141 0.89844,3.65235 0.46875,0.64453 1.11328,0.9375 0.66406,0.29296 1.50391,0.29296 l 4.19922,0 0,3.04688 -4.55079,0 z" />
      <path
         id="path4322"
         style="fill:#001e66;fill-opacity:1"
         d="m 398.04967,921.99688 3.24219,0 0.35156,3.28125 q 0.97657,-1.89453 2.59766,-2.85156 1.62109,-0.95703 3.86719,-0.95703 1.75781,0 2.98828,0.5664 1.23047,0.56641 2.03125,1.6211 1.64062,2.20703 1.64062,6.66015 l 0,13.55469 -3.61328,0 0,-13.55469 q 0,-2.94922 -1.03515,-4.33594 -1.03516,-1.38671 -3.26172,-1.38671 -1.28906,0 -2.2461,0.44921 -0.9375,0.44922 -1.60156,1.32813 -1.36719,1.77734 -1.36719,5.13672 l 0,12.36328 -3.59375,0 0,-21.875 z" />
      <path
         id="path4324"
         style="font-style:normal;font-variant:normal;font-weight:normal;font-stretch:normal;font-family:hack;-inkscape-font-specification:hack"
         d="m 429.92467,949.14532 q -1.52343,-2.42188 -2.59765,-4.64844 -1.07422,-2.20703 -1.79688,-4.41406 -1.44531,-4.4336 -1.44531,-8.76953 0,-4.31641 1.44531,-8.76954 0.74219,-2.24609 1.81641,-4.45312 1.07422,-2.22656 2.57812,-4.57031 l 3.125,0 q -1.38671,2.36328 -2.32421,4.53125 -0.91797,2.14843 -1.54297,4.33593 -0.66407,2.30469 -0.97657,4.49219 -0.3125,2.1875 -0.3125,4.4336 0,2.30468 0.3125,4.49218 0.33204,2.16797 0.97657,4.41407 0.64453,2.24609 1.58203,4.41406 0.9375,2.16797 2.28515,4.51172 l -3.125,0 0,0 z" />
      <path
         id="path4326"
         style="font-style:normal;font-variant:normal;font-weight:normal;font-stretch:normal;font-family:hack;-inkscape-font-specification:hack"
         d="m 451.70202,949.14532 q 2.57812,-4.51172 3.88672,-8.96485 0.60547,-2.08984 0.9375,-4.33593 0.33203,-2.2461 0.33203,-4.53125 0,-2.1875 -0.33203,-4.4336 -0.3125,-2.26562 -0.9375,-4.45312 -0.60547,-2.08985 -1.58203,-4.33594 -0.95704,-2.24609 -2.30469,-4.57031 l 3.125,0 q 2.98828,4.6289 4.39453,9.02343 1.44531,4.45313 1.44531,8.76954 0,4.35546 -1.44531,8.80859 -1.44531,4.43359 -4.39453,9.02344 l -3.125,0 0,0 z" />
      <path
         id="path4328"
         style="font-style:normal;font-variant:normal;font-weight:normal;font-stretch:normal;font-family:hack;-inkscape-font-specification:hack"
         d="m 508.22546,948.81329 q -4.84375,0 -6.50391,-1.44532 -1.66016,-1.42578 -1.66016,-5.76172 l 0,-4.66796 q 0,-2.92969 -1.03515,-4.08204 -1.05469,-1.13281 -3.78907,-1.13281 l -2.26562,0 0,-2.79297 2.26562,0 q 2.75391,0 3.78907,-1.11328 1.03515,-1.13281 1.03515,-4.04297 l 0,-4.6875 q 0,-4.33593 1.66016,-5.76172 1.62109,-1.42578 6.50391,-1.42578 l 1.25,0 0,2.79297 -1.36719,0 q -2.73438,0 -3.55469,0.83985 -0.83984,0.83984 -0.83984,3.63281 l 0,4.84375 q 0,3.08594 -0.87891,4.45312 -0.42969,0.66407 -1.19141,1.15235 -0.76171,0.46875 -1.85546,0.72265 2.16796,0.52735 3.04687,1.91407 0.87891,1.38671 0.87891,4.43359 l 0,4.84375 q 0,2.79297 0.83984,3.63281 0.82031,0.83985 3.55469,0.83985 l 1.36719,0 0,2.8125 -1.25,0 0,0 z" />
      <path
         id="path4330"
         style="font-style:normal;font-variant:normal;font-weight:normal;font-stretch:normal;font-family:hack;-inkscape-font-specification:hack;fill:#b4b4b4;fill-opacity:0.55603452"
         d="m 98.791862,964.71172 3.710938,0 -15.351563,32.8711 -3.730468,0 15.371093,-32.8711 z" />
      <path
         id="path4332"
         style="font-style:normal;font-variant:normal;font-weight:normal;font-stretch:normal;font-family:hack;-inkscape-font-specification:hack;fill:#b4b4b4;fill-opacity:0.55603452"
         d="m 122.85436,964.71172 3.71094,0 -15.35156,32.8711 -3.73047,0 15.37109,-32.8711 z" />
      <path
         id="path4334"
         style="font-style:normal;font-variant:normal;font-weight:normal;font-stretch:normal;font-family:hack;-inkscape-font-specification:hack;fill:#b4b4b4;fill-opacity:0.55603452"
         d="m 164.53405,994.43829 q -2.07031,0 -3.63281,-0.82032 -1.5625,-0.82031 -2.61719,-2.26562 -1.13281,-1.54297 -1.69922,-3.67188 -0.56641,-2.14843 -0.56641,-4.78515 0,-2.59766 0.54688,-4.72657 0.56641,-2.14843 1.71875,-3.67187 1.15234,-1.52344 2.75391,-2.26563 1.60156,-0.76171 3.49609,-0.76171 1.99219,0 3.47656,0.83984 1.50391,0.85937 2.36328,2.48047 l 0,-11.3086 3.59375,0 0,30.39063 -3.24218,0 -0.35157,-2.75391 q -0.44922,0.78125 -1.01562,1.40625 -0.56641,0.60547 -1.36719,1.05469 -1.48437,0.85938 -3.45703,0.85938 z m 0.50781,-3.04688 q 2.63672,0 3.98438,-2.14844 1.34765,-2.1289 1.34765,-6.28906 0,-4.16016 -1.34765,-6.30859 -0.625,-0.9961 -1.60157,-1.5625 -0.97656,-0.56641 -2.36328,-0.56641 -2.61718,0 -3.92578,2.12891 -1.32812,2.14843 -1.32812,6.30859 0,4.16016 1.32812,6.30859 0.6836,1.11329 1.67969,1.6211 0.99609,0.50781 2.22656,0.50781 z" />
      <path
         id="path4336"
         style="font-style:normal;font-variant:normal;font-weight:normal;font-stretch:normal;font-family:hack;-inkscape-font-specification:hack;fill:#b4b4b4;fill-opacity:0.55603452"
         d="m 189.70983,994.43829 q -2.24609,0 -4.00391,-0.72266 -1.73828,-0.74219 -2.94921,-2.20703 -1.23047,-1.52344 -1.81641,-3.67188 -0.58594,-2.16797 -0.58594,-4.90234 0,-5.54688 2.40235,-8.51563 2.40234,-2.94921 6.95312,-2.94921 2.34375,0 4.0625,0.76171 1.73828,0.74219 2.91016,2.1875 2.40234,2.96875 2.40234,8.4961 0,2.79297 -0.60547,4.96094 -0.58594,2.16796 -1.79687,3.63281 -1.17188,1.44531 -2.92969,2.1875 -1.73828,0.74219 -4.04297,0.74219 z m 0,-3.04688 q 2.75391,0 4.16016,-2.14844 1.40625,-2.1289 1.40625,-6.28906 0,-4.16016 -1.40625,-6.30859 -1.40625,-2.12891 -4.16016,-2.12891 -2.73437,0 -4.14062,2.12891 -1.40625,2.14843 -1.40625,6.30859 0,4.16016 1.40625,6.28906 1.40625,2.14844 4.14062,2.14844 z" />
      <path
         id="path4338"
         style="font-style:normal;font-variant:normal;font-weight:normal;font-stretch:normal;font-family:hack;-inkscape-font-specification:hack;fill:#b4b4b4;fill-opacity:0.55603452"
         d="m 237.32702,994.43829 q -0.85938,0 -1.77735,-0.0977 -0.89843,-0.0781 -1.73828,-0.23438 -0.76172,-0.15625 -1.79687,-0.42968 -1.01563,-0.27344 -2.05078,-0.60547 l 0,-3.71094 q 1.25,0.625 2.1289,0.97656 0.87891,0.33203 1.71875,0.56641 0.89844,0.25391 1.73828,0.39062 0.83985,0.13672 1.73829,0.13672 2.36328,0 3.6914,-0.97656 0.6836,-0.50781 0.9961,-1.19141 0.3125,-0.68359 0.3125,-1.38671 0,-1.36719 -1.15235,-2.20704 -1.15234,-0.85937 -3.63281,-1.36718 l -0.15625,-0.0391 -1.34766,-0.27343 q -1.46484,-0.29297 -2.61718,-0.78125 -1.13282,-0.48828 -1.91407,-1.26953 -1.42578,-1.42579 -1.42578,-3.92579 0,-1.58203 0.52735,-2.79296 0.54687,-1.21094 1.60156,-2.05079 1.11328,-0.89843 2.65625,-1.28906 1.54297,-0.41015 3.45703,-0.41015 0.83984,0 1.67969,0.0781 0.83984,0.0781 1.66015,0.23438 0.74219,0.15625 1.54297,0.41015 0.82031,0.23438 1.64063,0.56641 l 0,3.51562 q -1.5625,-0.89843 -3.10547,-1.34765 -0.78125,-0.21485 -1.58203,-0.33203 -0.78125,-0.11719 -1.67969,-0.11719 -1.13281,0 -2.05078,0.19531 -0.89844,0.19531 -1.50391,0.58594 -1.21094,0.80078 -1.21094,2.4414 0,0.6836 0.21485,1.25 0.23437,0.56641 0.68359,0.91797 0.44922,0.35157 1.48438,0.70313 1.05468,0.33203 2.98828,0.70312 l 1.44531,0.27344 q 1.40625,0.27344 2.40234,0.78125 0.9961,0.50781 1.66016,1.25 1.36719,1.50391 1.36719,3.98438 0,1.67968 -0.60547,2.92968 -0.58594,1.23047 -1.69922,2.10938 -1.19141,0.9375 -2.79297,1.38672 -1.58203,0.44922 -3.49609,0.44922 z" />
      <path
         id="path4340"
         style="font-style:normal;font-variant:normal;font-weight:normal;font-stretch:normal;font-family:hack;-inkscape-font-specification:hack;fill:#b4b4b4;fill-opacity:0.55603452"
         d="m 261.89733,994.43829 q -2.24609,0 -4.00391,-0.72266 -1.73828,-0.74219 -2.94921,-2.20703 -1.23047,-1.52344 -1.81641,-3.67188 -0.58594,-2.16797 -0.58594,-4.90234 0,-5.54688 2.40235,-8.51563 2.40234,-2.94921 6.95312,-2.94921 2.34375,0 4.0625,0.76171 1.73828,0.74219 2.91016,2.1875 2.40234,2.96875 2.40234,8.4961 0,2.79297 -0.60547,4.96094 -0.58594,2.16796 -1.79687,3.63281 -1.17188,1.44531 -2.92969,2.1875 -1.73828,0.74219 -4.04297,0.74219 z m 0,-3.04688 q 2.75391,0 4.16016,-2.14844 1.40625,-2.1289 1.40625,-6.28906 0,-4.16016 -1.40625,-6.30859 -1.40625,-2.12891 -4.16016,-2.12891 -2.73437,0 -4.14062,2.12891 -1.40625,2.14843 -1.40625,6.30859 0,4.16016 1.40625,6.28906 1.40625,2.14844 4.14062,2.14844 z" />
      <path
         id="path4342"
         style="font-style:normal;font-variant:normal;font-weight:normal;font-stretch:normal;font-family:hack;-inkscape-font-specification:hack;fill:#b4b4b4;fill-opacity:0.55603452"
         d="m 276.05749,971.99688 2.94922,0 0.3125,1.875 q 0.64453,-1.17188 1.62109,-1.79688 0.95703,-0.60546 2.20703,-0.60546 1.44531,0 2.46094,0.68359 0.95703,0.66406 1.52344,2.07031 0.68359,-1.42578 1.69921,-2.08984 1.01563,-0.66406 2.46094,-0.66406 1.34766,0 2.28516,0.52734 0.9375,0.50781 1.44531,1.50391 1.07422,2.03125 1.07422,7.69531 l 0,12.67578 -3.28125,0 0,-12.51953 q 0,-1.25 -0.0391,-2.1875 -0.0195,-0.9375 -0.0977,-1.6211 -0.0586,-0.70312 -0.15625,-1.17187 -0.0977,-0.48828 -0.23437,-0.78125 -0.21485,-0.50781 -0.66407,-0.80078 -0.44922,-0.3125 -1.26953,-0.3125 -0.74219,0 -1.25,0.29297 -0.50781,0.27343 -0.80078,0.89843 -0.33203,0.6836 -0.46875,2.03125 -0.13672,1.32813 -0.13672,3.65235 l 0,12.51953 -3.28125,0 0,-12.51953 q 0,-1.42578 -0.0391,-2.40235 -0.0391,-0.99609 -0.11719,-1.66015 -0.0781,-0.66406 -0.19531,-1.05469 -0.0977,-0.41016 -0.21484,-0.66406 -0.25391,-0.50781 -0.74219,-0.80078 -0.46875,-0.29297 -1.23047,-0.29297 -0.82031,0 -1.28906,0.33203 -0.44922,0.3125 -0.6836,0.83984 -0.13672,0.29297 -0.2539,0.74219 -0.0977,0.44922 -0.17578,1.13281 -0.0781,0.66407 -0.11719,1.60157 -0.0391,0.9375 -0.0391,2.22656 l 0,12.51953 -3.26172,0 0,-21.875 z" />
      <path
         id="path4344"
         style="font-style:normal;font-variant:normal;font-weight:normal;font-stretch:normal;font-family:hack;-inkscape-font-specification:hack;fill:#b4b4b4;fill-opacity:0.55603452"
         d="m 311.21374,994.43829 q -2.51953,0 -4.53125,-0.76172 -1.99219,-0.78125 -3.39844,-2.28516 -1.40625,-1.50391 -2.14844,-3.61328 -0.72265,-2.12891 -0.72265,-4.80469 0,-2.7539 0.74218,-4.82422 0.74219,-2.08984 2.05078,-3.55468 1.42579,-1.58204 3.33985,-2.34375 1.91406,-0.78125 4.12109,-0.78125 2.1875,0 3.82813,0.72265 1.66015,0.72266 2.83203,2.08985 1.17187,1.36718 1.77734,3.32031 0.625,1.93359 0.625,4.43359 l 0,1.75781 -15.5664,0 0,0.11719 q 0,3.57422 1.875,5.52735 0.89843,0.9375 2.16796,1.44531 1.28907,0.50781 3.06641,0.50781 1.77734,0 3.61328,-0.54687 1.89453,-0.56641 4.00391,-1.66016 l 0,3.57422 q -1.03516,0.42969 -2.01172,0.74219 -0.97656,0.3125 -1.93359,0.52734 -0.9375,0.21484 -1.875,0.3125 -0.9375,0.0977 -1.85547,0.0977 z m 4.92187,-13.45704 q -0.0391,-1.67968 -0.44922,-2.87109 -0.39062,-1.21094 -1.03515,-1.95312 -0.70313,-0.82032 -1.73828,-1.23047 -1.03516,-0.41016 -2.32422,-0.41016 -2.63672,0 -4.29688,1.71875 -1.67969,1.73828 -1.99219,4.76563 l 11.83594,-0.0195 z" />
      <path
         id="path4346"
         style="font-style:normal;font-variant:normal;font-weight:normal;font-stretch:normal;font-family:hack;-inkscape-font-specification:hack;fill:#b4b4b4;fill-opacity:0.55603452"
         d="m 356.13561,994.43829 q -3.39844,0 -5.37109,-1.89454 -0.9375,-0.89843 -1.46485,-2.10937 -0.52734,-1.23047 -0.52734,-2.94922 0,-3.61328 2.46094,-5.52734 2.42187,-1.89453 7.1875,-1.89453 l 4.82422,0 0,-0.56641 q 0,-1.25 -0.33203,-2.22656 -0.33204,-0.97657 -0.9961,-1.58203 -0.64453,-0.58594 -1.69922,-0.87891 -1.05468,-0.29297 -2.46093,-0.29297 -1.85547,0 -3.73047,0.52734 -1.89453,0.52735 -3.65235,1.54297 l 0,-3.59375 q 0.82032,-0.3125 1.81641,-0.625 0.99609,-0.3125 2.01172,-0.52734 1.77734,-0.37109 3.57422,-0.37109 1.38672,0 2.51953,0.21484 1.13281,0.19531 2.10937,0.60547 0.89844,0.39062 1.69922,0.99609 0.82031,0.58594 1.38672,1.36719 0.41016,0.56641 0.66406,1.19141 0.25391,0.625 0.39063,1.23046 0.3125,1.42579 0.3125,4.31641 l 0,4.47266 q 0.0391,1.13281 0.0586,1.99218 0.0195,0.85938 0.11719,1.60157 0.0977,0.82031 0.21484,1.54297 0.13672,0.72265 0.23438,1.09375 0.13672,0.60546 0.3125,1.15234 0.17578,0.52734 0.21484,0.625 l -3.61328,0 q -0.0977,-0.23438 -0.25391,-0.68359 -0.13671,-0.46875 -0.27343,-1.01563 -0.0977,-0.42969 -0.19532,-0.85937 -0.0781,-0.44922 -0.11718,-0.76172 -0.56641,0.97656 -1.46485,1.73828 -0.8789,0.76172 -1.73828,1.21094 -0.9375,0.48828 -1.99219,0.70312 -1.03515,0.23438 -2.22656,0.23438 z m 0.74219,-3.00782 q 2.94922,0 4.64844,-2.07031 1.71875,-2.10937 1.71875,-5.68359 l 0,-0.80078 -4.55078,0 q -3.125,0 -4.72657,1.09375 -0.83984,0.5664 -1.23047,1.40625 -0.37109,0.82031 -0.37109,1.91406 0,1.01562 0.3125,1.77734 0.3125,0.74219 0.87891,1.26953 0.5664,0.50782 1.36718,0.80078 0.82032,0.29297 1.95313,0.29297 z" />
      <path
         id="path4348"
         style="font-style:normal;font-variant:normal;font-weight:normal;font-stretch:normal;font-family:hack;-inkscape-font-specification:hack;fill:#b4b4b4;fill-opacity:0.55603452"
         d="m 381.09655,994.43829 q -2.07031,0 -3.63281,-0.82032 -1.5625,-0.82031 -2.61719,-2.26562 -1.13281,-1.54297 -1.69922,-3.67188 -0.56641,-2.14843 -0.56641,-4.78515 0,-2.59766 0.54688,-4.72657 0.56641,-2.14843 1.71875,-3.67187 1.15234,-1.52344 2.75391,-2.26563 1.60156,-0.76171 3.49609,-0.76171 1.99219,0 3.47656,0.83984 1.50391,0.85937 2.36328,2.48047 l 0,-11.3086 3.59375,0 0,30.39063 -3.24218,0 -0.35157,-2.75391 q -0.44922,0.78125 -1.01562,1.40625 -0.56641,0.60547 -1.36719,1.05469 -1.48437,0.85938 -3.45703,0.85938 z m 0.50781,-3.04688 q 2.63672,0 3.98438,-2.14844 1.34765,-2.1289 1.34765,-6.28906 0,-4.16016 -1.34765,-6.30859 -0.625,-0.9961 -1.60157,-1.5625 -0.97656,-0.56641 -2.36328,-0.56641 -2.61718,0 -3.92578,2.12891 -1.32812,2.14843 -1.32812,6.30859 0,4.16016 1.32812,6.30859 0.6836,1.11329 1.67969,1.6211 0.99609,0.50781 2.22656,0.50781 z" />
      <path
         id="path4350"
         style="font-style:normal;font-variant:normal;font-weight:normal;font-stretch:normal;font-family:hack;-inkscape-font-specification:hack;fill:#b4b4b4;fill-opacity:0.55603452"
         d="m 396.36999,971.99688 2.94922,0 0.3125,1.875 q 0.64453,-1.17188 1.62109,-1.79688 0.95703,-0.60546 2.20703,-0.60546 1.44531,0 2.46094,0.68359 0.95703,0.66406 1.52344,2.07031 0.68359,-1.42578 1.69921,-2.08984 1.01563,-0.66406 2.46094,-0.66406 1.34766,0 2.28516,0.52734 0.9375,0.50781 1.44531,1.50391 1.07422,2.03125 1.07422,7.69531 l 0,12.67578 -3.28125,0 0,-12.51953 q 0,-1.25 -0.0391,-2.1875 -0.0195,-0.9375 -0.0977,-1.6211 -0.0586,-0.70312 -0.15625,-1.17187 -0.0977,-0.48828 -0.23437,-0.78125 -0.21485,-0.50781 -0.66407,-0.80078 -0.44922,-0.3125 -1.26953,-0.3125 -0.74219,0 -1.25,0.29297 -0.50781,0.27343 -0.80078,0.89843 -0.33203,0.6836 -0.46875,2.03125 -0.13672,1.32813 -0.13672,3.65235 l 0,12.51953 -3.28125,0 0,-12.51953 q 0,-1.42578 -0.0391,-2.40235 -0.0391,-0.99609 -0.11719,-1.66015 -0.0781,-0.66406 -0.19531,-1.05469 -0.0977,-0.41016 -0.21484,-0.66406 -0.25391,-0.50781 -0.74219,-0.80078 -0.46875,-0.29297 -1.23047,-0.29297 -0.82031,0 -1.28906,0.33203 -0.44922,0.3125 -0.6836,0.83984 -0.13672,0.29297 -0.2539,0.74219 -0.0977,0.44922 -0.17578,1.13281 -0.0781,0.66407 -0.11719,1.60157 -0.0391,0.9375 -0.0391,2.22656 l 0,12.51953 -3.26172,0 0,-21.875 z" />
      <path
         id="path4352"
         style="font-style:normal;font-variant:normal;font-weight:normal;font-stretch:normal;font-family:hack;-inkscape-font-specification:hack;fill:#b4b4b4;fill-opacity:0.55603452"
         d="m 428.51842,968.03204 q -0.58593,0 -0.58593,-0.58594 l 0,-3.37891 q 0,-0.58594 0.58593,-0.58594 l 2.8125,0 q 0.58594,0 0.58594,0.58594 l 0,3.37891 q 0,0.58594 -0.58594,0.58594 l -2.8125,0 z m 6.5625,25.99609 q -1.5625,0 -2.8125,-0.48828 -1.23046,-0.48828 -2.16796,-1.58203 -1.77735,-2.07032 -1.77735,-5.85938 l 0,-11.28906 -4.78515,0 0,-2.8125 8.3789,0 0,14.10156 q 0,2.44141 0.89844,3.65235 0.46875,0.64453 1.11328,0.9375 0.66406,0.29296 1.50391,0.29296 l 4.19922,0 0,3.04688 -4.55079,0 z" />
      <path
         id="path4354"
         style="font-style:normal;font-variant:normal;font-weight:normal;font-stretch:normal;font-family:hack;-inkscape-font-specification:hack;fill:#b4b4b4;fill-opacity:0.55603452"
         d="m 446.17467,971.99688 3.24219,0 0.35156,3.28125 q 0.97657,-1.89453 2.59766,-2.85156 1.62109,-0.95703 3.86719,-0.95703 1.75781,0 2.98828,0.5664 1.23047,0.56641 2.03125,1.6211 1.64062,2.20703 1.64062,6.66015 l 0,13.55469 -3.61328,0 0,-13.55469 q 0,-2.94922 -1.03515,-4.33594 -1.03516,-1.38671 -3.26172,-1.38671 -1.28906,0 -2.2461,0.44921 -0.9375,0.44922 -1.60156,1.32813 -1.36719,1.77734 -1.36719,5.13672 l 0,12.36328 -3.59375,0 0,-21.875 z" />
      <path
         id="path4356"
         style="font-style:normal;font-variant:normal;font-weight:normal;font-stretch:normal;font-family:hack;-inkscape-font-specification:hack;fill:#b4b4b4;fill-opacity:0.55603452"
         d="m 502.01452,994.43829 q -0.85938,0 -1.77735,-0.0977 -0.89843,-0.0781 -1.73828,-0.23438 -0.76172,-0.15625 -1.79687,-0.42968 -1.01563,-0.27344 -2.05078,-0.60547 l 0,-3.71094 q 1.25,0.625 2.1289,0.97656 0.87891,0.33203 1.71875,0.56641 0.89844,0.25391 1.73828,0.39062 0.83985,0.13672 1.73829,0.13672 2.36328,0 3.6914,-0.97656 0.6836,-0.50781 0.9961,-1.19141 0.3125,-0.68359 0.3125,-1.38671 0,-1.36719 -1.15235,-2.20704 -1.15234,-0.85937 -3.63281,-1.36718 l -0.15625,-0.0391 -1.34766,-0.27343 q -1.46484,-0.29297 -2.61718,-0.78125 -1.13282,-0.48828 -1.91407,-1.26953 -1.42578,-1.42579 -1.42578,-3.92579 0,-1.58203 0.52735,-2.79296 0.54687,-1.21094 1.60156,-2.05079 1.11328,-0.89843 2.65625,-1.28906 1.54297,-0.41015 3.45703,-0.41015 0.83984,0 1.67969,0.0781 0.83984,0.0781 1.66015,0.23438 0.74219,0.15625 1.54297,0.41015 0.82031,0.23438 1.64063,0.56641 l 0,3.51562 q -1.5625,-0.89843 -3.10547,-1.34765 -0.78125,-0.21485 -1.58203,-0.33203 -0.78125,-0.11719 -1.67969,-0.11719 -1.13281,0 -2.05078,0.19531 -0.89844,0.19531 -1.50391,0.58594 -1.21094,0.80078 -1.21094,2.4414 0,0.6836 0.21485,1.25 0.23437,0.56641 0.68359,0.91797 0.44922,0.35157 1.48438,0.70313 1.05468,0.33203 2.98828,0.70312 l 1.44531,0.27344 q 1.40625,0.27344 2.40234,0.78125 0.9961,0.50781 1.66016,1.25 1.36719,1.50391 1.36719,3.98438 0,1.67968 -0.60547,2.92968 -0.58594,1.23047 -1.69922,2.10938 -1.19141,0.9375 -2.79297,1.38672 -1.58203,0.44922 -3.49609,0.44922 z" />
      <path
         id="path4358"
         style="font-style:normal;font-variant:normal;font-weight:normal;font-stretch:normal;font-family:hack;-inkscape-font-specification:hack;fill:#b4b4b4;fill-opacity:0.55603452"
         d="m 530.3153,993.95 q -4.02344,0 -5.70313,-1.62109 -1.66015,-1.60156 -1.66015,-5.58594 l 0,-11.95312 -5.83985,0 0,-2.79297 5.83985,0 0,-5.72266 3.59375,-1.5625 0,7.28516 8.16406,0 0,2.79297 -8.16406,0 0,11.95312 q 0,2.40235 0.91797,3.37891 0.89843,0.95703 3.20312,0.95703 l 4.04297,0 0,2.87109 -4.39453,0 0,0 z" />
      <path
         id="path4360"
         style="font-style:normal;font-variant:normal;font-weight:normal;font-stretch:normal;font-family:hack;-inkscape-font-specification:hack;fill:#b4b4b4;fill-opacity:0.55603452"
         d="m 549.04577,994.43829 q -3.33985,0 -4.98047,-2.20704 -1.64063,-2.1875 -1.64063,-6.64062 l 0,-13.55469 3.59375,0 0,13.55469 q 0,2.96875 1.05469,4.33594 0.50781,0.66406 1.26953,1.03515 0.78125,0.35157 1.95313,0.35157 2.53906,0 3.88672,-1.79688 1.34765,-1.77734 1.34765,-5.11719 l 0,-12.36328 3.61328,0 0,21.83594 -3.26171,0 -0.35157,-3.28125 q -0.97656,1.91406 -2.59765,2.87109 -1.66016,0.97657 -3.88672,0.97657 z" />
      <path
         id="path4362"
         style="font-style:normal;font-variant:normal;font-weight:normal;font-stretch:normal;font-family:hack;-inkscape-font-specification:hack;fill:#b4b4b4;fill-opacity:0.55603452"
         d="m 571.78014,974.78985 -5.83984,0 0,-2.79297 5.83984,0 0,-1.52344 q 0,-3.61328 1.66016,-5.29297 1.64062,-1.69922 5.13672,-1.69922 l 4.3164,0 0,2.98829 -4.08203,0 q -1.05468,0 -1.69922,0.21484 -0.625,0.19531 -0.97656,0.56641 -0.76172,0.80078 -0.76172,2.8125 l 0,1.93359 7.51953,0 0,2.79297 -7.51953,0 0,19.08203 -3.59375,0 0,-19.08203 z" />
      <path
         id="path4364"
         style="font-style:normal;font-variant:normal;font-weight:normal;font-stretch:normal;font-family:hack;-inkscape-font-specification:hack;fill:#b4b4b4;fill-opacity:0.55603452"
         d="m 595.84264,974.78985 -5.83984,0 0,-2.79297 5.83984,0 0,-1.52344 q 0,-3.61328 1.66016,-5.29297 1.64062,-1.69922 5.13672,-1.69922 l 4.3164,0 0,2.98829 -4.08203,0 q -1.05468,0 -1.69922,0.21484 -0.625,0.19531 -0.97656,0.56641 -0.76172,0.80078 -0.76172,2.8125 l 0,1.93359 7.51953,0 0,2.79297 -7.51953,0 0,19.08203 -3.59375,0 0,-19.08203 z" />
      <path
         id="path4366"
         style="font-style:normal;font-variant:normal;font-weight:normal;font-stretch:normal;font-family:hack;-inkscape-font-specification:hack"
         d="m 86.526237,1046.1766 1.328125,0 q 2.734375,0 3.59375,-0.8594 0.839844,-0.8399 0.839844,-3.6133 l 0,-4.8437 q 0,-3.0469 0.878906,-4.4336 0.878907,-1.3868 3.046875,-1.9141 -2.148437,-0.5078 -3.027343,-1.875 -0.429688,-0.6641 -0.664063,-1.7187 -0.234375,-1.0743 -0.234375,-2.7344 l 0,-4.8438 q 0,-2.7734 -0.839844,-3.6133 -0.859375,-0.8593 -3.59375,-0.8593 l -1.328125,0 0,-2.793 1.210938,0 q 4.882812,0 6.503906,1.4258 1.640625,1.4453 1.640625,5.7617 l 0,4.6875 q 0,1.5234 0.410156,2.5 0.410157,0.957 1.230469,1.543 0.78125,0.5664 1.894531,0.8398 1.132808,0.2735 2.480468,0.2735 l 1.25,0 0,2.7929 -1.25,0 q -1.38672,0 -2.499999,0.293 -1.113281,0.2734 -1.875,0.8398 -0.820312,0.6055 -1.230469,1.5821 -0.410156,0.9765 -0.410156,2.5 l 0,4.6679 q 0,4.336 -1.640625,5.7618 -1.660156,1.4453 -6.503906,1.4453 l -1.210938,0 0,-2.8125 z" />
    </g>
  </g>
</svg>
