<?xml version="1.0" encoding="UTF-8" standalone="no"?>
<!-- Created with Inkscape (http://www.inkscape.org/) -->

<svg
   xmlns:dc="http://purl.org/dc/elements/1.1/"
   xmlns:cc="http://creativecommons.org/ns#"
   xmlns:rdf="http://www.w3.org/1999/02/22-rdf-syntax-ns#"
   xmlns:svg="http://www.w3.org/2000/svg"
   xmlns="http://www.w3.org/2000/svg"
   xmlns:sodipodi="http://sodipodi.sourceforge.net/DTD/sodipodi-0.dtd"
   xmlns:inkscape="http://www.inkscape.org/namespaces/inkscape"
   width="190mm"
   height="31mm"
   viewBox="0 0 673.22829 109.84246"
   id="svg2"
   version="1.1"
   inkscape:version="0.91 r13725"
   sodipodi:docname="decorator-raw.svg">
  <defs
     id="defs4" />
  <sodipodi:namedview
     id="base"
     pagecolor="#ffffff"
     bordercolor="#666666"
     borderopacity="1.0"
     inkscape:pageopacity="0.0"
     inkscape:pageshadow="2"
     inkscape:zoom="0.7"
     inkscape:cx="59.621211"
     inkscape:cy="439.46949"
     inkscape:document-units="px"
     inkscape:current-layer="layer1"
     showgrid="false"
     inkscape:window-width="1920"
     inkscape:window-height="1015"
     inkscape:window-x="0"
     inkscape:window-y="0"
     inkscape:window-maximized="1" />
  <metadata
     id="metadata7">
    <rdf:RDF>
      <cc:Work
         rdf:about="">
        <dc:format>image/svg+xml</dc:format>
        <dc:type
           rdf:resource="http://purl.org/dc/dcmitype/StillImage" />
        <dc:title></dc:title>
      </cc:Work>
    </rdf:RDF>
  </metadata>
  <g
     inkscape:label="Layer 1"
     inkscape:groupmode="layer"
     id="layer1"
     transform="translate(0,-942.52038)">
    <g
       style="font-style:normal;font-weight:normal;font-size:40px;line-height:125%;font-family:sans-serif;letter-spacing:0px;word-spacing:0px;fill:#000000;fill-opacity:1;stroke:none;stroke-width:1px;stroke-linecap:butt;stroke-linejoin:miter;stroke-opacity:1"
       id="text4136">
      <path
         d="m 30.694754,992.87836 q -3.339844,0 -6.054688,-1.13282 -2.695312,-1.13281 -4.746094,-3.41796 -4.0625,-4.53125 -4.0625,-12.34375 0,-3.75 0.898438,-6.75782 0.917969,-3.00781 2.753906,-5.29297 1.835938,-2.28515 4.238281,-3.39843 2.421875,-1.13282 5.332032,-1.13282 2.304687,0 3.984375,0.66407 1.679687,0.66406 2.851562,1.89453 2.460938,2.57812 2.460938,7.01172 l 0,15.03906 -3.828125,0 0,-1.60156 q -0.429688,0.58593 -0.859375,0.9375 -0.429688,0.35156 -0.878907,0.5664 -0.996093,0.48828 -2.441406,0.48828 -3.183594,0 -5.136719,-2.30468 -1.972656,-2.32422 -1.972656,-6.11328 0,-1.9336 0.488281,-3.4375 0.507813,-1.50391 1.464844,-2.61719 1.953125,-2.28516 5.136719,-2.28516 0.664062,0 1.289062,0.11719 0.644532,0.0977 1.191407,0.35156 0.507812,0.23438 0.957031,0.60547 0.449219,0.37109 0.761719,0.80078 l 0,-0.80078 q 0,-2.65625 -1.445313,-4.10156 -1.484375,-1.44531 -4.101562,-1.44531 -2.109375,0 -3.808594,0.9375 -1.679688,0.91796 -2.890625,2.61718 -1.191406,1.66016 -1.875,4.02344 -0.683594,2.36328 -0.683594,5.27344 0,3.14453 0.800781,5.54687 0.800782,2.40235 2.148438,4.02344 1.523437,1.81641 3.554687,2.67578 2.03125,0.85938 4.277344,0.85938 0.78125,0 1.582031,-0.11719 0.800782,-0.0977 1.542969,-0.33203 0.703125,-0.21485 1.40625,-0.58594 0.722656,-0.35156 1.40625,-0.80078 l 1.796875,3.4375 q -0.820312,0.56641 -1.71875,0.97656 -0.898437,0.41016 -1.71875,0.64453 -0.859375,0.25391 -1.894531,0.39063 -1.015625,0.13672 -2.207031,0.13672 z m 0.292968,-12.14844 q 1.738282,0 2.734375,-1.25 0.996094,-1.25 0.996094,-3.47656 0,-2.1875 -0.996094,-3.45703 -0.996093,-1.25 -2.734375,-1.25 -0.976562,0 -1.621093,0.35156 -0.644532,0.33203 -1.09375,0.89844 -0.996094,1.26953 -0.996094,3.45703 0,2.22656 0.996094,3.47656 0.449218,0.56641 1.09375,0.91797 0.644531,0.33203 1.621093,0.33203 z"
         style="font-weight:bold;fill:#e50000;fill-opacity:1"
         id="path4338" />
      <path
         d="m 53.487722,987.21429 q -5.136718,0 -7.96875,-3.04687 -2.851562,-3.06641 -2.851562,-8.4375 0,-5.39063 2.871094,-8.47656 2.871093,-3.04688 7.890625,-3.04688 1.796875,0 3.4375,0.41016 1.621093,0.41015 3.242187,1.26953 l 0,5.23437 q -0.625,-0.54687 -1.347656,-0.95703 -0.703125,-0.42968 -1.386719,-0.70312 -0.683594,-0.27344 -1.484375,-0.41016 -0.800781,-0.15625 -1.640625,-0.15625 -1.464844,0 -2.519531,0.46875 -1.035156,0.44922 -1.757813,1.3086 -1.503906,1.79687 -1.503906,5.05859 0,3.26172 1.503906,5.03906 1.484375,1.75781 4.296875,1.75781 1.640625,0 3.105469,-0.5664 0.625,-0.23438 1.328125,-0.64453 0.722656,-0.41016 1.40625,-1.03516 l 0,5.25391 q -0.78125,0.44922 -1.542969,0.74218 -0.742187,0.29297 -1.5625,0.50782 -0.820312,0.21484 -1.660156,0.3125 -0.839844,0.11718 -1.855469,0.11718 z"
         style="font-weight:bold;fill:#00aaab;fill-opacity:1"
         id="path4340" />
      <path
         d="m 73.487722,987.21429 q -1.777343,0 -3.222656,-0.48828 -1.425781,-0.48828 -2.480469,-1.48437 -2.089843,-1.97266 -2.089843,-5.50781 0,-1.875 0.585937,-3.30079 0.605469,-1.42578 1.894531,-2.36328 2.480469,-1.8164 7.675782,-1.8164 l 3.964843,0 0,-0.95703 q 0,-0.72266 -0.273437,-1.25 -0.253906,-0.52735 -0.722656,-0.85938 -0.507813,-0.37109 -1.289063,-0.52734 -0.761719,-0.17578 -1.777344,-0.17578 -0.9375,0 -1.933593,0.13671 -0.976563,0.11719 -1.933594,0.3711 -0.9375,0.2539 -1.953125,0.68359 -1.015625,0.41016 -2.070313,0.97656 l 0,-4.88281 q 0.820313,-0.33203 1.835938,-0.64453 1.035156,-0.33203 2.011719,-0.50781 0.800781,-0.15625 1.953125,-0.27344 1.152343,-0.11719 2.441406,-0.11719 1.367187,0 2.460937,0.15625 1.113282,0.15625 1.992188,0.44922 0.898437,0.29297 1.5625,0.70313 0.683594,0.41015 1.191406,0.89843 0.527344,0.52735 0.9375,1.21094 0.410156,0.6836 0.683594,1.6211 0.292969,0.91796 0.429687,2.10937 0.136719,1.17188 0.136719,2.69531 0,0.3711 -0.01953,0.97657 0,0.60546 -0.01953,1.32812 0,0.72266 -0.01953,1.50391 0,0.76172 -0.01953,1.44531 0,0.68359 -0.01953,1.21094 0,0.52734 0,0.76172 0,0.41015 0,0.82031 0.01953,0.41015 0.03906,0.68359 0.03906,0.39063 0.05859,0.78125 0.03906,0.3711 0.07813,0.625 0.05859,0.39063 0.136719,0.76172 0.07813,0.35156 0.136719,0.54688 0.09766,0.29296 0.234375,0.60546 0.15625,0.3125 0.3125,0.52735 l -5.664063,0 q -0.175781,-0.29297 -0.332031,-0.60547 -0.136719,-0.3125 -0.214844,-0.52734 -0.05859,-0.19532 -0.136719,-0.54688 -0.07813,-0.37109 -0.117187,-0.76172 -1.074219,1.42578 -2.773438,2.22656 -0.820312,0.39063 -1.699218,0.58594 -0.859375,0.19531 -1.972657,0.19531 z m 1.601563,-3.96484 q 1.09375,0 1.972656,-0.41016 0.878906,-0.42968 1.503906,-1.30859 1.25,-1.67969 1.25,-4.76562 l 0,-0.39063 -2.285156,0 q -3.222656,0 -4.472656,0.82031 -1.269531,0.82032 -1.269531,2.77344 0,0.80078 0.214843,1.38672 0.214844,0.56641 0.664063,1.01562 0.878906,0.87891 2.421875,0.87891 z"
         style="font-weight:bold;fill:#00aaab;fill-opacity:1"
         id="path4342" />
      <path
         d="m 97.51116,987.21429 q -1.816406,0 -3.28125,-0.74218 -1.445313,-0.74219 -2.5,-2.2461 -2.070313,-2.98828 -2.070313,-8.51562 0,-5.52735 2.109375,-8.4961 0.996094,-1.40625 2.460938,-2.1875 1.464844,-0.78125 3.398437,-0.78125 0.9375,0 1.738282,0.21485 0.800781,0.19531 1.542971,0.68359 1.38672,0.91797 2.4414,2.73438 l 0,-11.6211 5.70313,0 0,30.39063 -5.13672,0 -0.56641,-3.24219 q -0.44922,0.95703 -1.05468,1.67969 -0.60547,0.70312 -1.3086,1.17187 -1.44531,0.95703 -3.47656,0.95703 z m 1.835937,-4.6875 q 1.835933,0 2.929683,-1.79687 1.07422,-1.77734 1.07422,-4.96094 0,-3.18359 -1.07422,-4.96094 -1.09375,-1.79687 -2.929683,-1.79687 -1.855468,0 -2.910156,1.79687 -1.054687,1.79688 -1.054687,4.96094 0,3.1836 1.054687,4.96094 1.054688,1.79687 2.910156,1.79687 z"
         style="font-weight:bold;fill:#00aaab;fill-opacity:1"
         id="path4344" />
      <path
         d="m 124.95257,987.21429 q -2.85157,0 -4.94141,-0.72265 -2.07031,-0.74219 -3.53516,-2.22656 -2.91015,-2.96875 -2.91015,-8.4375 0,-2.73438 0.68359,-4.82422 0.70313,-2.08985 2.10938,-3.65235 2.77343,-3.10547 7.65625,-3.10547 2.30468,0 4.21875,0.70313 1.91406,0.68359 3.30078,2.16797 1.38672,1.48437 2.03125,3.55469 0.64453,2.05078 0.64453,4.57031 l 0,2.32422 -14.82422,0 q 0.0391,2.59765 1.52344,3.84765 1.5039,1.26953 4.47265,1.26953 1.97266,0 3.90625,-0.5664 0.89844,-0.27344 1.89453,-0.70313 0.9961,-0.42968 2.10938,-1.09375 l 0,5.25391 q -1.99219,0.82031 -4.0625,1.23047 -1.05469,0.21484 -2.14844,0.3125 -1.07422,0.0977 -2.1289,0.0977 z m 3.49609,-13.94531 q -0.0391,-2.28515 -1.15234,-3.4375 -0.52735,-0.54687 -1.36719,-0.83984 -0.82031,-0.3125 -1.91406,-0.3125 -2.01172,0 -3.1836,1.1914 -1.17187,1.21094 -1.38672,3.41797 l 9.00391,-0.0195 z"
         style="font-weight:bold;fill:#00aaab;fill-opacity:1"
         id="path4346" />
      <path
         d="m 139.38616,964.77289 5.11719,0 0.5664,3.28125 q 0.625,-1.81641 2.07032,-2.8125 1.46484,-0.9961 3.55468,-0.9961 3.08594,0 4.66797,2.05079 1.58203,2.08984 1.58203,6.15234 l 0,14.19922 -5.68359,0 0,-13.32031 q 0,-2.40235 -0.66406,-3.41797 -0.33203,-0.50782 -0.89844,-0.76172 -0.54688,-0.25391 -1.25,-0.25391 -0.83984,0 -1.44531,0.35156 -0.58594,0.35157 -1.03516,1.03516 -0.42969,0.66406 -0.66406,1.58203 -0.23438,0.91797 -0.23438,2.26563 l 0,12.51953 -5.68359,0 0,-21.875 z"
         style="font-weight:bold;fill:#00aaab;fill-opacity:1"
         id="path4348" />
      <path
         d="m 169.73772,987.21429 q -1.77734,0 -3.22265,-0.48828 -1.42579,-0.48828 -2.48047,-1.48437 -2.08985,-1.97266 -2.08985,-5.50781 0,-1.875 0.58594,-3.30079 0.60547,-1.42578 1.89453,-2.36328 2.48047,-1.8164 7.67578,-1.8164 l 3.96485,0 0,-0.95703 q 0,-0.72266 -0.27344,-1.25 -0.25391,-0.52735 -0.72266,-0.85938 -0.50781,-0.37109 -1.28906,-0.52734 -0.76172,-0.17578 -1.77734,-0.17578 -0.9375,0 -1.9336,0.13671 -0.97656,0.11719 -1.93359,0.3711 -0.9375,0.2539 -1.95313,0.68359 -1.01562,0.41016 -2.07031,0.97656 l 0,-4.88281 q 0.82031,-0.33203 1.83594,-0.64453 1.03516,-0.33203 2.01172,-0.50781 0.80078,-0.15625 1.95312,-0.27344 1.15235,-0.11719 2.44141,-0.11719 1.36719,0 2.46094,0.15625 1.11328,0.15625 1.99218,0.44922 0.89844,0.29297 1.5625,0.70313 0.6836,0.41015 1.19141,0.89843 0.52734,0.52735 0.9375,1.21094 0.41016,0.6836 0.68359,1.6211 0.29297,0.91796 0.42969,2.10937 0.13672,1.17188 0.13672,2.69531 0,0.3711 -0.0195,0.97657 0,0.60546 -0.0195,1.32812 0,0.72266 -0.0195,1.50391 0,0.76172 -0.0195,1.44531 0,0.68359 -0.0195,1.21094 0,0.52734 0,0.76172 0,0.41015 0,0.82031 0.0195,0.41015 0.0391,0.68359 0.0391,0.39063 0.0586,0.78125 0.0391,0.3711 0.0781,0.625 0.0586,0.39063 0.13671,0.76172 0.0781,0.35156 0.13672,0.54688 0.0977,0.29296 0.23438,0.60546 0.15625,0.3125 0.3125,0.52735 l -5.66406,0 q -0.17579,-0.29297 -0.33204,-0.60547 -0.13671,-0.3125 -0.21484,-0.52734 -0.0586,-0.19532 -0.13672,-0.54688 -0.0781,-0.37109 -0.11719,-0.76172 -1.07421,1.42578 -2.77343,2.22656 -0.82032,0.39063 -1.69922,0.58594 -0.85938,0.19531 -1.97266,0.19531 z m 1.60156,-3.96484 q 1.09375,0 1.97266,-0.41016 0.87891,-0.42968 1.50391,-1.30859 1.25,-1.67969 1.25,-4.76562 l 0,-0.39063 -2.28516,0 q -3.22266,0 -4.47266,0.82031 -1.26953,0.82032 -1.26953,2.77344 0,0.80078 0.21485,1.38672 0.21484,0.56641 0.66406,1.01562 0.87891,0.87891 2.42187,0.87891 z"
         style="font-weight:bold;fill:#00aaab;fill-opacity:1"
         id="path4350" />
      <path
         d="m 196.18303,987.21429 q -0.99609,0 -2.07031,-0.0977 -1.05469,-0.0781 -2.05078,-0.23438 -0.99609,-0.15625 -2.07031,-0.42968 -1.05469,-0.27344 -2.12891,-0.60547 l 0,-5 q 1.91406,1.09375 3.86719,1.64062 0.99609,0.27344 1.91406,0.42969 0.9375,0.13672 1.9336,0.13672 1.93359,0 2.98828,-0.58594 0.50781,-0.29297 0.76172,-0.70312 0.27343,-0.42969 0.27343,-1.11329 0,-0.44921 -0.15625,-0.82031 -0.13672,-0.37109 -0.60547,-0.72265 -0.46875,-0.35157 -1.30859,-0.66407 -0.82031,-0.3125 -2.14844,-0.60547 l -1.58203,-0.35156 q -3.28125,-0.74219 -4.78515,-2.32422 -1.50391,-1.60156 -1.50391,-4.19922 0,-3.20312 2.28516,-4.96093 2.28515,-1.75782 6.44531,-1.75782 0.9375,0 1.91406,0.0781 0.97656,0.0781 1.77734,0.21484 0.80079,0.13672 1.77735,0.39063 0.97656,0.23437 1.79687,0.52734 l 0,5 q -0.80078,-0.50781 -1.66015,-0.89844 -0.83985,-0.41015 -1.6211,-0.64453 -0.78125,-0.23437 -1.67968,-0.37109 -0.87891,-0.13672 -1.83594,-0.13672 -0.87891,0 -1.58203,0.13672 -0.70313,0.11719 -1.21094,0.41016 -0.50781,0.27343 -0.76172,0.70312 -0.23437,0.41016 -0.23437,0.85938 0,0.8789 0.99609,1.5039 0.99609,0.625 3.18359,1.13281 l 0.21485,0.0586 1.64062,0.39062 q 1.54297,0.3711 2.69531,0.95703 1.15235,0.58594 1.89454,1.42579 0.74218,0.83984 1.09375,1.99218 0.35156,1.13282 0.35156,2.48047 0,3.37891 -2.20703,5.0586 -1.11328,0.85937 -2.79297,1.26953 -1.66016,0.42968 -3.8086,0.42968 z"
         style="font-weight:bold;fill:#00aaab;fill-opacity:1"
         id="path4352" />
      <path
         d="m 219.83538,991.92133 q -1.52344,-2.42188 -2.59766,-4.64844 -1.07422,-2.20703 -1.79687,-4.41406 -1.44532,-4.4336 -1.44532,-8.76954 0,-4.3164 1.44532,-8.76953 0.74218,-2.24609 1.8164,-4.45312 1.07422,-2.22656 2.57813,-4.57031 l 3.125,0 q -1.38672,2.36328 -2.32422,4.53125 -0.91797,2.14843 -1.54297,4.33593 -0.66406,2.30469 -0.97656,4.49219 -0.3125,2.1875 -0.3125,4.43359 0,2.30469 0.3125,4.49219 0.33203,2.16797 0.97656,4.41406 0.64453,2.2461 1.58203,4.41407 0.9375,2.16797 2.28516,4.51172 l -3.125,0 0,0 z"
         style="font-style:normal;font-variant:normal;font-weight:normal;font-stretch:normal;font-family:hack;-inkscape-font-specification:hack"
         id="path4354" />
      <path
         d="m 266.65178,957.48773 3.39844,0 0,10.83985 -3.39844,0 0,-10.83985 z"
         style="font-style:normal;font-variant:normal;font-weight:normal;font-stretch:normal;font-family:hack;-inkscape-font-specification:hack"
         id="path4356" />
      <path
         d="m 290.83147,987.21429 q -3.33984,0 -4.98047,-2.20703 -1.64062,-2.1875 -1.64062,-6.64062 l 0,-13.55469 3.59375,0 0,13.55469 q 0,2.96875 1.05469,4.33594 0.50781,0.66406 1.26953,1.03515 0.78125,0.35156 1.95312,0.35156 2.53906,0 3.88672,-1.79687 1.34766,-1.77734 1.34766,-5.11719 l 0,-12.36328 3.61328,0 0,21.83594 -3.26172,0 -0.35156,-3.28125 q -0.97657,1.91406 -2.59766,2.87109 -1.66016,0.97656 -3.88672,0.97656 z"
         style="fill:#a98200;fill-opacity:1"
         id="path4358" />
      <path
         d="m 315.98772,987.21429 q -0.85937,0 -1.77734,-0.0977 -0.89844,-0.0781 -1.73828,-0.23438 -0.76172,-0.15625 -1.79688,-0.42968 -1.01562,-0.27344 -2.05078,-0.60547 l 0,-3.71094 q 1.25,0.625 2.12891,0.97656 0.8789,0.33203 1.71875,0.56641 0.89843,0.2539 1.73828,0.39062 0.83984,0.13672 1.73828,0.13672 2.36328,0 3.69141,-0.97656 0.68359,-0.50781 0.99609,-1.19141 0.3125,-0.68359 0.3125,-1.38672 0,-1.36718 -1.15234,-2.20703 -1.15235,-0.85937 -3.63282,-1.36718 l -0.15625,-0.0391 -1.34765,-0.27343 q -1.46485,-0.29297 -2.61719,-0.78125 -1.13281,-0.48829 -1.91406,-1.26954 -1.42578,-1.42578 -1.42578,-3.92578 0,-1.58203 0.52734,-2.79297 0.54687,-1.21093 1.60156,-2.05078 1.11328,-0.89843 2.65625,-1.28906 1.54297,-0.41016 3.45703,-0.41016 0.83985,0 1.67969,0.0781 0.83984,0.0781 1.66016,0.23437 0.74218,0.15625 1.54297,0.41016 0.82031,0.23438 1.64062,0.56641 l 0,3.51562 q -1.5625,-0.89844 -3.10547,-1.34765 -0.78125,-0.21485 -1.58203,-0.33204 -0.78125,-0.11718 -1.67969,-0.11718 -1.13281,0 -2.05078,0.19531 -0.89844,0.19531 -1.5039,0.58594 -1.21094,0.80078 -1.21094,2.4414 0,0.6836 0.21484,1.25 0.23438,0.56641 0.6836,0.91797 0.44921,0.35156 1.48437,0.70313 1.05469,0.33203 2.98828,0.70312 l 1.44531,0.27344 q 1.40625,0.27344 2.40235,0.78125 0.99609,0.50781 1.66015,1.25 1.36719,1.50391 1.36719,3.98437 0,1.67969 -0.60547,2.92969 -0.58593,1.23047 -1.69922,2.10938 -1.1914,0.9375 -2.79296,1.38672 -1.58204,0.44921 -3.4961,0.44921 z"
         style="fill:#a98200;fill-opacity:1"
         id="path4360" />
      <path
         d="m 341.74944,987.21429 q -2.51953,0 -4.53125,-0.76171 -1.99219,-0.78125 -3.39844,-2.28516 -1.40625,-1.50391 -2.14843,-3.61328 -0.72266,-2.12891 -0.72266,-4.80469 0,-2.75391 0.74219,-4.82422 0.74218,-2.08984 2.05078,-3.55469 1.42578,-1.58203 3.33984,-2.34375 1.91406,-0.78125 4.1211,-0.78125 2.1875,0 3.82812,0.72266 1.66016,0.72266 2.83203,2.08984 1.17188,1.36719 1.77735,3.32032 0.625,1.93359 0.625,4.43359 l 0,1.75781 -15.56641,0 0,0.11719 q 0,3.57422 1.875,5.52734 0.89844,0.9375 2.16797,1.44532 1.28906,0.50781 3.0664,0.50781 1.77735,0 3.61329,-0.54688 1.89453,-0.5664 4.0039,-1.66015 l 0,3.57422 q -1.03515,0.42968 -2.01172,0.74218 -0.97656,0.3125 -1.93359,0.52735 -0.9375,0.21484 -1.875,0.3125 -0.9375,0.0977 -1.85547,0.0977 z m 4.92188,-13.45703 q -0.0391,-1.67968 -0.44922,-2.87109 -0.39063,-1.21094 -1.03516,-1.95313 -0.70312,-0.82031 -1.73828,-1.23046 -1.03516,-0.41016 -2.32422,-0.41016 -2.63672,0 -4.29687,1.71875 -1.67969,1.73828 -1.99219,4.76562 l 11.83594,-0.0195 z"
         style="fill:#a98200;fill-opacity:1"
         id="path4362" />
      <path
         d="m 358.48772,964.77289 3.26172,0 0.35156,4.27734 q 0.91797,-2.32422 2.77344,-3.57422 1.83594,-1.23047 4.39453,-1.23047 1.32813,0 2.5,0.33204 0.56641,0.15625 1.13281,0.42968 0.56641,0.25391 1.07422,0.60547 l 0,3.67188 q -1.11328,-0.89844 -2.34375,-1.3086 -1.21093,-0.41015 -2.63672,-0.41015 -3.33984,0 -5.11718,2.10937 -1.77735,2.08985 -1.77735,6.09375 l 0,10.87891 -3.61328,0 0,-21.875 z"
         style="fill:#a98200;fill-opacity:1"
         id="path4364" />
      <path
         d="m 380.851,957.48773 3.96485,0 0,25.83985 14.08203,0 0,3.32031 -18.04688,0 0,-29.16016 z"
         style="fill:#a98200;fill-opacity:1"
         id="path4366" />
      <path
         d="m 412.74553,987.21429 q -2.24609,0 -4.0039,-0.72265 -1.73828,-0.74219 -2.94922,-2.20703 -1.23047,-1.52344 -1.81641,-3.67188 -0.58593,-2.16797 -0.58593,-4.90234 0,-5.54688 2.40234,-8.51563 2.40234,-2.94922 6.95312,-2.94922 2.34375,0 4.0625,0.76172 1.73829,0.74219 2.91016,2.1875 2.40234,2.96875 2.40234,8.4961 0,2.79297 -0.60546,4.96093 -0.58594,2.16797 -1.79688,3.63282 -1.17187,1.44531 -2.92969,2.1875 -1.73828,0.74218 -4.04297,0.74218 z m 0,-3.04687 q 2.75391,0 4.16016,-2.14844 1.40625,-2.1289 1.40625,-6.28906 0,-4.16016 -1.40625,-6.30859 -1.40625,-2.12891 -4.16016,-2.12891 -2.73437,0 -4.14062,2.12891 -1.40625,2.14843 -1.40625,6.30859 0,4.16016 1.40625,6.28906 1.40625,2.14844 4.14062,2.14844 z"
         style="fill:#a98200;fill-opacity:1"
         id="path4368" />
      <path
         d="m 436.51507,995.24164 q -0.76172,0 -1.52344,-0.0781 -0.76172,-0.0586 -1.58203,-0.19531 -0.80078,-0.13672 -1.60157,-0.33203 -0.78125,-0.19531 -1.64062,-0.46875 l 0,-3.55469 q 0.95703,0.44922 1.83594,0.78125 0.89843,0.33203 1.64062,0.54688 1.52344,0.42968 2.94922,0.42968 1.44531,0 2.46094,-0.39062 1.01562,-0.39063 1.69922,-1.21094 1.32812,-1.5625 1.32812,-5 l 0,-2.59765 q -0.83984,1.8164 -2.34375,2.73437 -1.48437,0.89844 -3.59375,0.89844 -3.84765,0 -6.13281,-3.06641 -2.28516,-3.0664 -2.28516,-8.20312 0,-5.13672 2.28516,-8.22266 1.15234,-1.54297 2.65625,-2.30469 1.52344,-0.76172 3.49609,-0.76172 1.01563,0 1.89453,0.21485 0.89844,0.19531 1.64063,0.625 1.48437,0.85937 2.38281,2.59765 l 0.35156,-2.83203 3.24219,0 0,20.39063 q 0,4.90234 -2.32422,7.46094 -2.30468,2.53906 -6.83593,2.53906 z m 0.41015,-11.42578 q 2.53906,0 3.84766,-2.12891 1.30859,-2.12891 1.30859,-6.15234 0,-4.0625 -1.30859,-6.15235 -0.6836,-1.11328 -1.67969,-1.60156 -0.97656,-0.48828 -2.1875,-0.48828 -2.61719,0 -4.00391,2.08984 -1.38671,2.08985 -1.38671,6.17188 0,4.0039 1.40625,6.13281 1.40625,2.12891 4.0039,2.12891 z"
         style="fill:#a98200;fill-opacity:1"
         id="path4370" />
      <path
         d="m 460.57757,995.24164 q -0.76172,0 -1.52344,-0.0781 -0.76172,-0.0586 -1.58203,-0.19531 -0.80078,-0.13672 -1.60157,-0.33203 -0.78125,-0.19531 -1.64062,-0.46875 l 0,-3.55469 q 0.95703,0.44922 1.83594,0.78125 0.89843,0.33203 1.64062,0.54688 1.52344,0.42968 2.94922,0.42968 1.44531,0 2.46094,-0.39062 1.01562,-0.39063 1.69922,-1.21094 1.32812,-1.5625 1.32812,-5 l 0,-2.59765 q -0.83984,1.8164 -2.34375,2.73437 -1.48437,0.89844 -3.59375,0.89844 -3.84765,0 -6.13281,-3.06641 -2.28516,-3.0664 -2.28516,-8.20312 0,-5.13672 2.28516,-8.22266 1.15234,-1.54297 2.65625,-2.30469 1.52344,-0.76172 3.49609,-0.76172 1.01563,0 1.89453,0.21485 0.89844,0.19531 1.64063,0.625 1.48437,0.85937 2.38281,2.59765 l 0.35156,-2.83203 3.24219,0 0,20.39063 q 0,4.90234 -2.32422,7.46094 -2.30468,2.53906 -6.83593,2.53906 z m 0.41015,-11.42578 q 2.53906,0 3.84766,-2.12891 1.30859,-2.12891 1.30859,-6.15234 0,-4.0625 -1.30859,-6.15235 -0.6836,-1.11328 -1.67969,-1.60156 -0.97656,-0.48828 -2.1875,-0.48828 -2.61719,0 -4.00391,2.08984 -1.38671,2.08985 -1.38671,6.17188 0,4.0039 1.40625,6.13281 1.40625,2.12891 4.0039,2.12891 z"
         style="fill:#a98200;fill-opacity:1"
         id="path4372" />
      <path
         d="m 486.12444,987.21429 q -2.51953,0 -4.53125,-0.76171 -1.99219,-0.78125 -3.39844,-2.28516 -1.40625,-1.50391 -2.14843,-3.61328 -0.72266,-2.12891 -0.72266,-4.80469 0,-2.75391 0.74219,-4.82422 0.74218,-2.08984 2.05078,-3.55469 1.42578,-1.58203 3.33984,-2.34375 1.91406,-0.78125 4.1211,-0.78125 2.1875,0 3.82812,0.72266 1.66016,0.72266 2.83203,2.08984 1.17188,1.36719 1.77735,3.32032 0.625,1.93359 0.625,4.43359 l 0,1.75781 -15.56641,0 0,0.11719 q 0,3.57422 1.875,5.52734 0.89844,0.9375 2.16797,1.44532 1.28906,0.50781 3.0664,0.50781 1.77735,0 3.61329,-0.54688 1.89453,-0.5664 4.0039,-1.66015 l 0,3.57422 q -1.03515,0.42968 -2.01172,0.74218 -0.97656,0.3125 -1.93359,0.52735 -0.9375,0.21484 -1.875,0.3125 -0.9375,0.0977 -1.85547,0.0977 z m 4.92188,-13.45703 q -0.0391,-1.67968 -0.44922,-2.87109 -0.39063,-1.21094 -1.03516,-1.95313 -0.70312,-0.82031 -1.73828,-1.23046 -1.03516,-0.41016 -2.32422,-0.41016 -2.63672,0 -4.29687,1.71875 -1.67969,1.73828 -1.99219,4.76562 l 11.83594,-0.0195 z"
         style="fill:#a98200;fill-opacity:1"
         id="path4374" />
      <path
         d="m 507.88225,987.21429 q -2.07031,0 -3.63281,-0.82031 -1.5625,-0.82031 -2.61719,-2.26562 -1.13281,-1.54297 -1.69922,-3.67188 -0.5664,-2.14844 -0.5664,-4.78515 0,-2.59766 0.54687,-4.72657 0.56641,-2.14843 1.71875,-3.67187 1.15235,-1.52344 2.75391,-2.26563 1.60156,-0.76172 3.49609,-0.76172 1.99219,0 3.47657,0.83985 1.5039,0.85937 2.36328,2.48047 l 0,-11.3086 3.59375,0 0,30.39063 -3.24219,0 -0.35156,-2.75391 q -0.44922,0.78125 -1.01563,1.40625 -0.5664,0.60547 -1.36719,1.05469 -1.48437,0.85937 -3.45703,0.85937 z m 0.50782,-3.04687 q 2.63671,0 3.98437,-2.14844 1.34766,-2.1289 1.34766,-6.28906 0,-4.16016 -1.34766,-6.30859 -0.625,-0.9961 -1.60156,-1.5625 -0.97656,-0.56641 -2.36328,-0.56641 -2.61719,0 -3.92578,2.12891 -1.32813,2.14843 -1.32813,6.30859 0,4.16016 1.32813,6.30859 0.68359,1.11328 1.67968,1.6211 0.9961,0.50781 2.22657,0.50781 z"
         style="fill:#a98200;fill-opacity:1"
         id="path4376" />
      <path
         d="m 524.95257,983.32758 6.11328,0 0,-22.51954 -6.11328,0 0,-3.32031 16.1914,0 0,3.32031 -6.11328,0 0,22.51954 6.11328,0 0,3.32031 -16.1914,0 0,-3.32031 z"
         style="fill:#a98200;fill-opacity:1"
         id="path4378" />
      <path
         d="m 548.89788,964.77289 3.24219,0 0.35156,3.28125 q 0.97656,-1.89453 2.59765,-2.85156 1.6211,-0.95704 3.86719,-0.95704 1.75781,0 2.98828,0.56641 1.23047,0.56641 2.03125,1.62109 1.64063,2.20704 1.64063,6.66016 l 0,13.55469 -3.61328,0 0,-13.55469 q 0,-2.94922 -1.03516,-4.33594 -1.03516,-1.38672 -3.26172,-1.38672 -1.28906,0 -2.24609,0.44922 -0.9375,0.44922 -1.60156,1.32813 -1.36719,1.77734 -1.36719,5.13672 l 0,12.36328 -3.59375,0 0,-21.875 z"
         style="fill:#a98200;fill-opacity:1"
         id="path4380" />
      <path
         d="m 579.46428,957.48773 3.39844,0 0,10.83985 -3.39844,0 0,-10.83985 z"
         style="font-style:normal;font-variant:normal;font-weight:normal;font-stretch:normal;font-family:hack;-inkscape-font-specification:hack"
         id="path4382" />
      <path
         d="m 626.61272,991.92133 q 2.57813,-4.51172 3.88672,-8.96485 0.60547,-2.08984 0.9375,-4.33594 0.33203,-2.24609 0.33203,-4.53125 0,-2.1875 -0.33203,-4.43359 -0.3125,-2.26562 -0.9375,-4.45312 -0.60547,-2.08985 -1.58203,-4.33594 -0.95703,-2.2461 -2.30469,-4.57031 l 3.125,0 q 2.98828,4.6289 4.39453,9.02343 1.44532,4.45313 1.44532,8.76953 0,4.35547 -1.44532,8.8086 -1.44531,4.43359 -4.39453,9.02344 l -3.125,0 0,0 z"
         style="font-style:normal;font-variant:normal;font-weight:normal;font-stretch:normal;font-family:hack;-inkscape-font-specification:hack"
         id="path4384" />
      <path
         d="m 17.843191,1014.7729 2.949219,0 0.3125,1.875 q 0.644531,-1.1719 1.621094,-1.7969 0.957031,-0.6055 2.207031,-0.6055 1.445312,0 2.460937,0.6836 0.957032,0.6641 1.523438,2.0704 0.683594,-1.4258 1.699219,-2.0899 1.015625,-0.6641 2.460937,-0.6641 1.347656,0 2.285156,0.5274 0.9375,0.5078 1.445313,1.5039 1.074219,2.0312 1.074219,7.6953 l 0,12.6758 -3.28125,0 0,-12.5195 q 0,-1.25 -0.03906,-2.1875 -0.01953,-0.9375 -0.09766,-1.6211 -0.05859,-0.7032 -0.15625,-1.1719 -0.09766,-0.4883 -0.234375,-0.7813 -0.214844,-0.5078 -0.664063,-0.8007 -0.449218,-0.3125 -1.269531,-0.3125 -0.742187,0 -1.25,0.2929 -0.507812,0.2735 -0.800781,0.8985 -0.332031,0.6836 -0.46875,2.0312 -0.136719,1.3281 -0.136719,3.6524 l 0,12.5195 -3.28125,0 0,-12.5195 q 0,-1.4258 -0.03906,-2.4024 -0.03906,-0.9961 -0.117188,-1.6601 -0.07813,-0.6641 -0.195312,-1.0547 -0.09766,-0.4102 -0.214844,-0.6641 -0.253906,-0.5078 -0.742188,-0.8008 -0.46875,-0.2929 -1.230468,-0.2929 -0.820313,0 -1.289063,0.332 -0.449219,0.3125 -0.683594,0.8398 -0.136718,0.293 -0.253906,0.7422 -0.09766,0.4492 -0.175781,1.1328 -0.07813,0.6641 -0.117188,1.6016 -0.03906,0.9375 -0.03906,2.2266 l 0,12.5195 -3.261719,0 0,-21.875 z"
         style="fill:#001e66;fill-opacity:1"
         id="path4386" />
      <path
         d="m 52.999441,1037.2143 q -2.519531,0 -4.53125,-0.7617 -1.992187,-0.7813 -3.398437,-2.2852 -1.40625,-1.5039 -2.148438,-3.6133 -0.722656,-2.1289 -0.722656,-4.8046 0,-2.754 0.742187,-4.8243 0.742188,-2.0898 2.050782,-3.5547 1.425781,-1.582 3.339843,-2.3437 1.914063,-0.7813 4.121094,-0.7813 2.1875,0 3.828125,0.7227 1.660156,0.7227 2.832031,2.0898 1.171875,1.3672 1.777344,3.3204 0.625,1.9336 0.625,4.4336 l 0,1.7578 -15.566406,0 0,0.1172 q 0,3.5742 1.875,5.5273 0.898437,0.9375 2.167969,1.4453 1.289062,0.5078 3.066406,0.5078 1.777344,0 3.613281,-0.5469 1.894531,-0.5664 4.003906,-1.6601 l 0,3.5742 q -1.035156,0.4297 -2.011718,0.7422 -0.976563,0.3125 -1.933594,0.5273 -0.9375,0.2149 -1.875,0.3125 -0.9375,0.098 -1.855469,0.098 z m 4.921875,-13.457 q -0.03906,-1.6797 -0.449219,-2.8711 -0.390625,-1.211 -1.035156,-1.9532 -0.703125,-0.8203 -1.738281,-1.2304 -1.035156,-0.4102 -2.324219,-0.4102 -2.636719,0 -4.296875,1.7188 -1.679687,1.7383 -1.992187,4.7656 l 11.835937,-0.019 z"
         style="fill:#001e66;fill-opacity:1"
         id="path4388" />
      <path
         d="m 79.601004,1036.726 q -4.023438,0 -5.703125,-1.6211 -1.660157,-1.6015 -1.660157,-5.5859 l 0,-11.9531 -5.839843,0 0,-2.793 5.839843,0 0,-5.7227 3.59375,-1.5625 0,7.2852 8.164063,0 0,2.793 -8.164063,0 0,11.9531 q 0,2.4023 0.917969,3.3789 0.898438,0.957 3.203125,0.957 l 4.042969,0 0,2.8711 -4.394531,0 0,0 z"
         style="fill:#001e66;fill-opacity:1"
         id="path4390" />
      <path
         d="m 91.710379,1006.2573 3.59375,0 0,11.7968 q 0.976562,-1.8945 2.597656,-2.8515 1.621094,-0.9571 3.867185,-0.9571 1.75781,0 2.98828,0.5665 1.23047,0.5664 2.03125,1.621 1.64063,2.2071 1.64063,6.6602 l 0,13.5547 -3.61328,0 0,-13.5547 q 0,-2.9492 -1.03516,-4.3359 -1.03516,-1.3868 -3.26172,-1.3868 -1.28906,0 -2.246091,0.4493 -0.9375,0.4492 -1.601563,1.3281 -1.367187,1.7773 -1.367187,5.1367 l 0,12.3633 -3.59375,0 0,-30.3906 z"
         style="fill:#001e66;fill-opacity:1"
         id="path4392" />
      <path
         d="m 123.99553,1037.2143 q -2.24609,0 -4.0039,-0.7227 -1.73828,-0.7421 -2.94922,-2.207 -1.23047,-1.5234 -1.81641,-3.6719 -0.58593,-2.1679 -0.58593,-4.9023 0,-5.5469 2.40234,-8.5156 2.40234,-2.9493 6.95312,-2.9493 2.34375,0 4.0625,0.7618 1.73829,0.7422 2.91016,2.1875 2.40234,2.9687 2.40234,8.4961 0,2.7929 -0.60546,4.9609 -0.58594,2.168 -1.79688,3.6328 -1.17187,1.4453 -2.92969,2.1875 -1.73828,0.7422 -4.04297,0.7422 z m 0,-3.0469 q 2.75391,0 4.16016,-2.1484 1.40625,-2.1289 1.40625,-6.2891 0,-4.1601 -1.40625,-6.3086 -1.40625,-2.1289 -4.16016,-2.1289 -2.73437,0 -4.14062,2.1289 -1.40625,2.1485 -1.40625,6.3086 0,4.1602 1.40625,6.2891 1.40625,2.1484 4.14062,2.1484 z"
         style="fill:#001e66;fill-opacity:1"
         id="path4394" />
      <path
         d="m 146.94475,1037.2143 q -2.07031,0 -3.63281,-0.8203 -1.5625,-0.8203 -2.61719,-2.2656 -1.13281,-1.543 -1.69922,-3.6719 -0.5664,-2.1485 -0.5664,-4.7852 0,-2.5976 0.54687,-4.7265 0.56641,-2.1485 1.71875,-3.6719 1.15235,-1.5234 2.75391,-2.2656 1.60156,-0.7618 3.49609,-0.7618 1.99219,0 3.47657,0.8399 1.5039,0.8594 2.36328,2.4805 l 0,-11.3086 3.59375,0 0,30.3906 -3.24219,0 -0.35156,-2.7539 q -0.44922,0.7812 -1.01563,1.4062 -0.5664,0.6055 -1.36719,1.0547 -1.48437,0.8594 -3.45703,0.8594 z m 0.50782,-3.0469 q 2.63671,0 3.98437,-2.1484 1.34766,-2.1289 1.34766,-6.2891 0,-4.1601 -1.34766,-6.3086 -0.625,-0.9961 -1.60156,-1.5625 -0.97656,-0.5664 -2.36328,-0.5664 -2.61719,0 -3.92578,2.1289 -1.32813,2.1485 -1.32813,6.3086 0,4.1602 1.32813,6.3086 0.68359,1.1133 1.67968,1.6211 0.9961,0.5078 2.22657,0.5078 z"
         style="fill:#001e66;fill-opacity:1"
         id="path4396" />
      <path
         d="m 170.16741,1010.808 -9.16016,0 0,-3.3203 22.2461,0 0,3.3203 -9.1211,0 0,25.8399 -3.96484,0 0,-25.8399 z"
         style="fill:#001e66;fill-opacity:1"
         id="path4398" />
      <path
         d="m 187.96038,1006.2573 3.59375,0 0,11.7968 q 0.97656,-1.8945 2.59765,-2.8515 1.6211,-0.9571 3.86719,-0.9571 1.75781,0 2.98828,0.5665 1.23047,0.5664 2.03125,1.621 1.64063,2.2071 1.64063,6.6602 l 0,13.5547 -3.61328,0 0,-13.5547 q 0,-2.9492 -1.03516,-4.3359 -1.03516,-1.3868 -3.26172,-1.3868 -1.28906,0 -2.24609,0.4493 -0.9375,0.4492 -1.60156,1.3281 -1.36719,1.7773 -1.36719,5.1367 l 0,12.3633 -3.59375,0 0,-30.3906 z"
         style="fill:#001e66;fill-opacity:1"
         id="path4400" />
      <path
         d="m 218.23382,1037.2143 q -3.39844,0 -5.3711,-1.8945 -0.9375,-0.8985 -1.46484,-2.1094 -0.52735,-1.2305 -0.52735,-2.9492 0,-3.6133 2.46094,-5.5274 2.42188,-1.8945 7.1875,-1.8945 l 4.82422,0 0,-0.5664 q 0,-1.25 -0.33203,-2.2266 -0.33203,-0.9765 -0.99609,-1.582 -0.64454,-0.5859 -1.69922,-0.8789 -1.05469,-0.293 -2.46094,-0.293 -1.85547,0 -3.73047,0.5274 -1.89453,0.5273 -3.65234,1.5429 l 0,-3.5937 q 0.82031,-0.3125 1.8164,-0.625 0.9961,-0.3125 2.01172,-0.5274 1.77735,-0.3711 3.57422,-0.3711 1.38672,0 2.51953,0.2149 1.13281,0.1953 2.10938,0.6055 0.89843,0.3906 1.69922,0.9961 0.82031,0.5859 1.38671,1.3671 0.41016,0.5664 0.66407,1.1914 0.2539,0.625 0.39062,1.2305 0.3125,1.4258 0.3125,4.3164 l 0,4.4727 q 0.0391,1.1328 0.0586,1.9922 0.0195,0.8593 0.11718,1.6015 0.0977,0.8203 0.21485,1.543 0.13672,0.7227 0.23437,1.0937 0.13672,0.6055 0.3125,1.1524 0.17578,0.5273 0.21485,0.625 l -3.61329,0 q -0.0977,-0.2344 -0.2539,-0.6836 -0.13672,-0.4688 -0.27344,-1.0156 -0.0977,-0.4297 -0.19531,-0.8594 -0.0781,-0.4492 -0.11719,-0.7617 -0.56641,0.9765 -1.46484,1.7383 -0.87891,0.7617 -1.73828,1.2109 -0.9375,0.4883 -1.99219,0.7031 -1.03516,0.2344 -2.22656,0.2344 z m 0.74218,-3.0078 q 2.94922,0 4.64844,-2.0703 1.71875,-2.1094 1.71875,-5.6836 l 0,-0.8008 -4.55078,0 q -3.125,0 -4.72656,1.0937 -0.83985,0.5665 -1.23047,1.4063 -0.3711,0.8203 -0.3711,1.9141 0,1.0156 0.3125,1.7773 0.3125,0.7422 0.87891,1.2695 0.56641,0.5078 1.36719,0.8008 0.82031,0.293 1.95312,0.293 z"
         style="fill:#001e66;fill-opacity:1"
         id="path4402" />
      <path
         d="m 248.0385,1036.726 q -4.02343,0 -5.70312,-1.6211 -1.66016,-1.6015 -1.66016,-5.5859 l 0,-11.9531 -5.83984,0 0,-2.793 5.83984,0 0,-5.7227 3.59375,-1.5625 0,7.2852 8.16406,0 0,2.793 -8.16406,0 0,11.9531 q 0,2.4023 0.91797,3.3789 0.89844,0.957 3.20313,0.957 l 4.04296,0 0,2.8711 -4.39453,0 0,0 z"
         style="fill:#001e66;fill-opacity:1"
         id="path4404" />
      <path
         d="m 259.05413,1007.4877 5,0 9.84375,24.0039 0,-24.0039 3.80859,0 0,29.1602 -5,0 -9.84375,-24.0039 0,24.0039 -3.80859,0 0,-29.1602 z"
         style="fill:#001e66;fill-opacity:1"
         id="path4406" />
      <path
         d="m 293.62444,1037.2143 q -2.51953,0 -4.53125,-0.7617 -1.99219,-0.7813 -3.39844,-2.2852 -1.40625,-1.5039 -2.14843,-3.6133 -0.72266,-2.1289 -0.72266,-4.8046 0,-2.754 0.74219,-4.8243 0.74218,-2.0898 2.05078,-3.5547 1.42578,-1.582 3.33984,-2.3437 1.91406,-0.7813 4.1211,-0.7813 2.1875,0 3.82812,0.7227 1.66016,0.7227 2.83203,2.0898 1.17188,1.3672 1.77735,3.3204 0.625,1.9336 0.625,4.4336 l 0,1.7578 -15.56641,0 0,0.1172 q 0,3.5742 1.875,5.5273 0.89844,0.9375 2.16797,1.4453 1.28906,0.5078 3.0664,0.5078 1.77735,0 3.61329,-0.5469 1.89453,-0.5664 4.0039,-1.6601 l 0,3.5742 q -1.03515,0.4297 -2.01172,0.7422 -0.97656,0.3125 -1.93359,0.5273 -0.9375,0.2149 -1.875,0.3125 -0.9375,0.098 -1.85547,0.098 z m 4.92188,-13.457 q -0.0391,-1.6797 -0.44922,-2.8711 -0.39063,-1.211 -1.03516,-1.9532 -0.70312,-0.8203 -1.73828,-1.2304 -1.03516,-0.4102 -2.32422,-0.4102 -2.63672,0 -4.29687,1.7188 -1.67969,1.7383 -1.99219,4.7656 l 11.83594,-0.019 z"
         style="fill:#001e66;fill-opacity:1"
         id="path4408" />
      <path
         d="m 317.68694,1037.2143 q -2.51953,0 -4.53125,-0.7617 -1.99219,-0.7813 -3.39844,-2.2852 -1.40625,-1.5039 -2.14843,-3.6133 -0.72266,-2.1289 -0.72266,-4.8046 0,-2.754 0.74219,-4.8243 0.74218,-2.0898 2.05078,-3.5547 1.42578,-1.582 3.33984,-2.3437 1.91406,-0.7813 4.1211,-0.7813 2.1875,0 3.82812,0.7227 1.66016,0.7227 2.83203,2.0898 1.17188,1.3672 1.77735,3.3204 0.625,1.9336 0.625,4.4336 l 0,1.7578 -15.56641,0 0,0.1172 q 0,3.5742 1.875,5.5273 0.89844,0.9375 2.16797,1.4453 1.28906,0.5078 3.0664,0.5078 1.77735,0 3.61329,-0.5469 1.89453,-0.5664 4.0039,-1.6601 l 0,3.5742 q -1.03515,0.4297 -2.01172,0.7422 -0.97656,0.3125 -1.93359,0.5273 -0.9375,0.2149 -1.875,0.3125 -0.9375,0.098 -1.85547,0.098 z m 4.92188,-13.457 q -0.0391,-1.6797 -0.44922,-2.8711 -0.39063,-1.211 -1.03516,-1.9532 -0.70312,-0.8203 -1.73828,-1.2304 -1.03516,-0.4102 -2.32422,-0.4102 -2.63672,0 -4.29687,1.7188 -1.67969,1.7383 -1.99219,4.7656 l 11.83594,-0.019 z"
         style="fill:#001e66;fill-opacity:1"
         id="path4410" />
      <path
         d="m 339.44475,1037.2143 q -2.07031,0 -3.63281,-0.8203 -1.5625,-0.8203 -2.61719,-2.2656 -1.13281,-1.543 -1.69922,-3.6719 -0.5664,-2.1485 -0.5664,-4.7852 0,-2.5976 0.54687,-4.7265 0.56641,-2.1485 1.71875,-3.6719 1.15235,-1.5234 2.75391,-2.2656 1.60156,-0.7618 3.49609,-0.7618 1.99219,0 3.47657,0.8399 1.5039,0.8594 2.36328,2.4805 l 0,-11.3086 3.59375,0 0,30.3906 -3.24219,0 -0.35156,-2.7539 q -0.44922,0.7812 -1.01563,1.4062 -0.5664,0.6055 -1.36719,1.0547 -1.48437,0.8594 -3.45703,0.8594 z m 0.50782,-3.0469 q 2.63671,0 3.98437,-2.1484 1.34766,-2.1289 1.34766,-6.2891 0,-4.1601 -1.34766,-6.3086 -0.625,-0.9961 -1.60156,-1.5625 -0.97656,-0.5664 -2.36328,-0.5664 -2.61719,0 -3.92578,2.1289 -1.32813,2.1485 -1.32813,6.3086 0,4.1602 1.32813,6.3086 0.68359,1.1133 1.67968,1.6211 0.9961,0.5078 2.22657,0.5078 z"
         style="fill:#001e66;fill-opacity:1"
         id="path4412" />
      <path
         d="m 364.11272,1037.2143 q -0.85937,0 -1.77734,-0.098 -0.89844,-0.078 -1.73828,-0.2343 -0.76172,-0.1563 -1.79688,-0.4297 -1.01562,-0.2735 -2.05078,-0.6055 l 0,-3.7109 q 1.25,0.625 2.12891,0.9765 0.8789,0.3321 1.71875,0.5664 0.89843,0.2539 1.73828,0.3907 0.83984,0.1367 1.73828,0.1367 2.36328,0 3.69141,-0.9766 0.68359,-0.5078 0.99609,-1.1914 0.3125,-0.6836 0.3125,-1.3867 0,-1.3672 -1.15234,-2.207 -1.15235,-0.8594 -3.63282,-1.3672 l -0.15625,-0.039 -1.34765,-0.2734 q -1.46485,-0.293 -2.61719,-0.7813 -1.13281,-0.4883 -1.91406,-1.2695 -1.42578,-1.4258 -1.42578,-3.9258 0,-1.582 0.52734,-2.793 0.54687,-1.2109 1.60156,-2.0507 1.11328,-0.8985 2.65625,-1.2891 1.54297,-0.4102 3.45703,-0.4102 0.83985,0 1.67969,0.078 0.83984,0.078 1.66016,0.2343 0.74218,0.1563 1.54297,0.4102 0.82031,0.2344 1.64062,0.5664 l 0,3.5156 q -1.5625,-0.8984 -3.10547,-1.3476 -0.78125,-0.2149 -1.58203,-0.3321 -0.78125,-0.1171 -1.67969,-0.1171 -1.13281,0 -2.05078,0.1953 -0.89844,0.1953 -1.5039,0.5859 -1.21094,0.8008 -1.21094,2.4414 0,0.6836 0.21484,1.25 0.23438,0.5664 0.6836,0.918 0.44921,0.3515 1.48437,0.7031 1.05469,0.332 2.98828,0.7031 l 1.44531,0.2735 q 1.40625,0.2734 2.40235,0.7812 0.99609,0.5078 1.66015,1.25 1.36719,1.5039 1.36719,3.9844 0,1.6797 -0.60547,2.9297 -0.58593,1.2305 -1.69922,2.1094 -1.1914,0.9375 -2.79296,1.3867 -1.58204,0.4492 -3.4961,0.4492 z"
         style="fill:#001e66;fill-opacity:1"
         id="path4414" />
      <path
         d="m 380.851,1007.4877 3.96485,0 0,25.8399 14.08203,0 0,3.3203 -18.04688,0 0,-29.1602 z"
         style="fill:#001e66;fill-opacity:1"
         id="path4416" />
      <path
         d="m 412.74553,1037.2143 q -2.24609,0 -4.0039,-0.7227 -1.73828,-0.7421 -2.94922,-2.207 -1.23047,-1.5234 -1.81641,-3.6719 -0.58593,-2.1679 -0.58593,-4.9023 0,-5.5469 2.40234,-8.5156 2.40234,-2.9493 6.95312,-2.9493 2.34375,0 4.0625,0.7618 1.73829,0.7422 2.91016,2.1875 2.40234,2.9687 2.40234,8.4961 0,2.7929 -0.60546,4.9609 -0.58594,2.168 -1.79688,3.6328 -1.17187,1.4453 -2.92969,2.1875 -1.73828,0.7422 -4.04297,0.7422 z m 0,-3.0469 q 2.75391,0 4.16016,-2.1484 1.40625,-2.1289 1.40625,-6.2891 0,-4.1601 -1.40625,-6.3086 -1.40625,-2.1289 -4.16016,-2.1289 -2.73437,0 -4.14062,2.1289 -1.40625,2.1485 -1.40625,6.3086 0,4.1602 1.40625,6.2891 1.40625,2.1484 4.14062,2.1484 z"
         style="fill:#001e66;fill-opacity:1"
         id="path4418" />
      <path
         d="m 436.51507,1045.2416 q -0.76172,0 -1.52344,-0.078 -0.76172,-0.059 -1.58203,-0.1953 -0.80078,-0.1367 -1.60157,-0.332 -0.78125,-0.1953 -1.64062,-0.4688 l 0,-3.5547 q 0.95703,0.4493 1.83594,0.7813 0.89843,0.332 1.64062,0.5469 1.52344,0.4296 2.94922,0.4296 1.44531,0 2.46094,-0.3906 1.01562,-0.3906 1.69922,-1.2109 1.32812,-1.5625 1.32812,-5 l 0,-2.5977 q -0.83984,1.8164 -2.34375,2.7344 -1.48437,0.8984 -3.59375,0.8984 -3.84765,0 -6.13281,-3.0664 -2.28516,-3.0664 -2.28516,-8.2031 0,-5.1367 2.28516,-8.2226 1.15234,-1.543 2.65625,-2.3047 1.52344,-0.7618 3.49609,-0.7618 1.01563,0 1.89453,0.2149 0.89844,0.1953 1.64063,0.625 1.48437,0.8594 2.38281,2.5976 l 0.35156,-2.832 3.24219,0 0,20.3906 q 0,4.9024 -2.32422,7.461 -2.30468,2.539 -6.83593,2.539 z m 0.41015,-11.4257 q 2.53906,0 3.84766,-2.1289 1.30859,-2.129 1.30859,-6.1524 0,-4.0625 -1.30859,-6.1523 -0.6836,-1.1133 -1.67969,-1.6016 -0.97656,-0.4883 -2.1875,-0.4883 -2.61719,0 -4.00391,2.0899 -1.38671,2.0898 -1.38671,6.1718 0,4.0039 1.40625,6.1329 1.40625,2.1289 4.0039,2.1289 z"
         style="fill:#001e66;fill-opacity:1"
         id="path4420" />
      <path
         d="m 460.57757,1045.2416 q -0.76172,0 -1.52344,-0.078 -0.76172,-0.059 -1.58203,-0.1953 -0.80078,-0.1367 -1.60157,-0.332 -0.78125,-0.1953 -1.64062,-0.4688 l 0,-3.5547 q 0.95703,0.4493 1.83594,0.7813 0.89843,0.332 1.64062,0.5469 1.52344,0.4296 2.94922,0.4296 1.44531,0 2.46094,-0.3906 1.01562,-0.3906 1.69922,-1.2109 1.32812,-1.5625 1.32812,-5 l 0,-2.5977 q -0.83984,1.8164 -2.34375,2.7344 -1.48437,0.8984 -3.59375,0.8984 -3.84765,0 -6.13281,-3.0664 -2.28516,-3.0664 -2.28516,-8.2031 0,-5.1367 2.28516,-8.2226 1.15234,-1.543 2.65625,-2.3047 1.52344,-0.7618 3.49609,-0.7618 1.01563,0 1.89453,0.2149 0.89844,0.1953 1.64063,0.625 1.48437,0.8594 2.38281,2.5976 l 0.35156,-2.832 3.24219,0 0,20.3906 q 0,4.9024 -2.32422,7.461 -2.30468,2.539 -6.83593,2.539 z m 0.41015,-11.4257 q 2.53906,0 3.84766,-2.1289 1.30859,-2.129 1.30859,-6.1524 0,-4.0625 -1.30859,-6.1523 -0.6836,-1.1133 -1.67969,-1.6016 -0.97656,-0.4883 -2.1875,-0.4883 -2.61719,0 -4.00391,2.0899 -1.38671,2.0898 -1.38671,6.1718 0,4.0039 1.40625,6.1329 1.40625,2.1289 4.0039,2.1289 z"
         style="fill:#001e66;fill-opacity:1"
         id="path4422" />
      <path
         d="m 483.11663,1010.808 q -0.58594,0 -0.58594,-0.5859 l 0,-3.3789 q 0,-0.5859 0.58594,-0.5859 l 2.8125,0 q 0.58594,0 0.58594,0.5859 l 0,3.3789 q 0,0.5859 -0.58594,0.5859 l -2.8125,0 z m 6.5625,25.9961 q -1.5625,0 -2.8125,-0.4882 -1.23047,-0.4883 -2.16797,-1.5821 -1.77734,-2.0703 -1.77734,-5.8593 l 0,-11.2891 -4.78516,0 0,-2.8125 8.37891,0 0,14.1016 q 0,2.4414 0.89843,3.6523 0.46875,0.6445 1.11328,0.9375 0.66407,0.293 1.50391,0.293 l 4.19922,0 0,3.0468 -4.55078,0 z"
         style="fill:#001e66;fill-opacity:1"
         id="path4424" />
      <path
         d="m 500.77288,1014.7729 3.24219,0 0.35156,3.2812 q 0.97656,-1.8945 2.59765,-2.8515 1.6211,-0.9571 3.86719,-0.9571 1.75781,0 2.98828,0.5665 1.23047,0.5664 2.03125,1.621 1.64063,2.2071 1.64063,6.6602 l 0,13.5547 -3.61328,0 0,-13.5547 q 0,-2.9492 -1.03516,-4.3359 -1.03516,-1.3868 -3.26172,-1.3868 -1.28906,0 -2.24609,0.4493 -0.9375,0.4492 -1.60156,1.3281 -1.36719,1.7773 -1.36719,5.1367 l 0,12.3633 -3.59375,0 0,-21.875 z"
         style="fill:#001e66;fill-opacity:1"
         id="path4426" />
      <path
         d="m 532.64788,1041.9213 q -1.52344,-2.4218 -2.59766,-4.6484 -1.07422,-2.207 -1.79687,-4.4141 -1.44532,-4.4336 -1.44532,-8.7695 0,-4.3164 1.44532,-8.7695 0.74218,-2.2461 1.8164,-4.4532 1.07422,-2.2265 2.57813,-4.5703 l 3.125,0 q -1.38672,2.3633 -2.32422,4.5313 -0.91797,2.1484 -1.54297,4.3359 -0.66406,2.3047 -0.97656,4.4922 -0.3125,2.1875 -0.3125,4.4336 0,2.3047 0.3125,4.4922 0.33203,2.168 0.97656,4.414 0.64453,2.2461 1.58203,4.4141 0.9375,2.168 2.28516,4.5117 l -3.125,0 0,0 z"
         style="font-style:normal;font-variant:normal;font-weight:normal;font-stretch:normal;font-family:hack;-inkscape-font-specification:hack"
         id="path4428" />
      <path
         d="m 554.42522,1041.9213 q 2.57813,-4.5117 3.88672,-8.9648 0.60547,-2.0899 0.9375,-4.336 0.33203,-2.246 0.33203,-4.5312 0,-2.1875 -0.33203,-4.4336 -0.3125,-2.2656 -0.9375,-4.4531 -0.60547,-2.0899 -1.58203,-4.336 -0.95703,-2.2461 -2.30469,-4.5703 l 3.125,0 q 2.98828,4.6289 4.39453,9.0235 1.44532,4.4531 1.44532,8.7695 0,4.3555 -1.44532,8.8086 -1.44531,4.4336 -4.39453,9.0234 l -3.125,0 0,0 z"
         style="font-style:normal;font-variant:normal;font-weight:normal;font-stretch:normal;font-family:hack;-inkscape-font-specification:hack"
         id="path4430" />
      <path
         d="m 610.94866,1041.5893 q -4.84375,0 -6.50391,-1.4453 -1.66015,-1.4258 -1.66015,-5.7617 l 0,-4.668 q 0,-2.9297 -1.03516,-4.082 -1.05469,-1.1328 -3.78906,-1.1328 l -2.26563,0 0,-2.793 2.26563,0 q 2.7539,0 3.78906,-1.1133 1.03516,-1.1328 1.03516,-4.043 l 0,-4.6875 q 0,-4.3359 1.66015,-5.7617 1.6211,-1.4258 6.50391,-1.4258 l 1.25,0 0,2.793 -1.36719,0 q -2.73437,0 -3.55469,0.8398 -0.83984,0.8399 -0.83984,3.6329 l 0,4.8437 q 0,3.0859 -0.87891,4.4531 -0.42968,0.6641 -1.1914,1.1524 -0.76172,0.4687 -1.85547,0.7226 2.16797,0.5274 3.04687,1.9141 0.87891,1.3867 0.87891,4.4336 l 0,4.8437 q 0,2.793 0.83984,3.6329 0.82032,0.8398 3.55469,0.8398 l 1.36719,0 0,2.8125 -1.25,0 0,0 z"
         style="font-style:normal;font-variant:normal;font-weight:normal;font-stretch:normal;font-family:hack;-inkscape-font-specification:hack"
         id="path4432" />
      <path
         d="m 646.43694,1038.9526 1.32813,0 q 2.73437,0 3.59375,-0.8594 0.83984,-0.8398 0.83984,-3.6133 l 0,-4.8437 q 0,-3.0469 0.87891,-4.4336 0.8789,-1.3867 3.04687,-1.9141 -2.14844,-0.5078 -3.02734,-1.875 -0.42969,-0.664 -0.66407,-1.7187 -0.23437,-1.0743 -0.23437,-2.7344 l 0,-4.8438 q 0,-2.7734 -0.83984,-3.6132 -0.85938,-0.8594 -3.59375,-0.8594 l -1.32813,0 0,-2.793 1.21094,0 q 4.88281,0 6.5039,1.4258 1.64063,1.4453 1.64063,5.7617 l 0,4.6875 q 0,1.5235 0.41016,2.5 0.41015,0.957 1.23046,1.543 0.78125,0.5664 1.89454,0.8398 1.13281,0.2735 2.48046,0.2735 l 1.25,0 0,2.7929 -1.25,0 q -1.38671,0 -2.5,0.293 -1.11328,0.2734 -1.875,0.8398 -0.82031,0.6055 -1.23046,1.5821 -0.41016,0.9765 -0.41016,2.5 l 0,4.6679 q 0,4.336 -1.64063,5.7618 -1.66015,1.4453 -6.5039,1.4453 l -1.21094,0 0,-2.8125 z"
         style="font-style:normal;font-variant:normal;font-weight:normal;font-stretch:normal;font-family:hack;-inkscape-font-specification:hack"
         id="path4434" />
    </g>
  </g>
</svg>
